<?xml version="1.0" ?>
<svg xmlns="http://www.w3.org/2000/svg" viewBox="131 0 2755 1035">
  <g transform="scale(1, -1) translate(0, -1035)">
    <path d="M136,107 C143,160 186,211 254,211 C316,211 353,166 353,109 C353,50 306,9 245,9 C176,9 131,62 131,143 C131,274 224,364 368,364 C544,364 644,216 615,2 " fill="none" stroke="black" stroke-width="60" stroke-linecap="round"/>
    <path d="M615,2 C748,433 641.357177734375,684.3629760742188 362.3572082519531,684.3629760742188 C254.8675994873047,684.3629760742188 196.35719299316406,644.5534057617188 196.35719299316406,592.3629760742188 C196.35719299316406,542.375 253.2592010498047,508 376,508 C554.731689453125,508 678.8096923828125,592.394287109375 729,742 " fill="none" stroke="black" stroke-width="60" stroke-linecap="round"/>
    <path d="M1226,79 C1226,159 1177,209 1117,209 C1054,209 1008,165 1008,108 C1008,50 1053,9 1115,9 C1216,9 1287,130 1287,316 C1287,548 1181,680 1013,680 C964,680 916,665 876,642 " fill="none" stroke="black" stroke-width="60" stroke-linecap="round"/>
    <path d="M1178,835 C1276,835 1312,888 1312,939 C1312,992 1269,1035 1209,1035 C1152,1035 1108,994 1108,936 C1108,845 1216,783 1355,783 C1498,783 1578,851 1626,941 " fill="none" stroke="black" stroke-width="60" stroke-linecap="round"/>
    <path d="M1484,107 C1491,160 1534,211 1602,211 C1664,211 1701,166 1701,109 C1701,50 1654,9 1593,9 C1524,9 1479,62 1479,143 C1479,274 1572,364 1716,364 C1892,364 1992,216 1963,2 " fill="none" stroke="black" stroke-width="60" stroke-linecap="round"/>
    <path d="M1963,2 C2096,433 1989.357177734375,684.3629760742188 1710.357177734375,684.3629760742188 C1602.8675537109375,684.3629760742188 1544.357177734375,644.5534057617188 1544.357177734375,592.3629760742188 C1544.357177734375,542.375 1601.2591552734375,508 1724,508 C1902.731689453125,508 2026.8096923828125,592.394287109375 2077,742 " fill="none" stroke="black" stroke-width="60" stroke-linecap="round"/>
    <path d="M2624,369 C2624,308 2582,265 2519,265 C2456,265 2412,307 2412,364 C2412,421 2456,464 2516,464 C2583,464 2629,414 2629,336 C2629,142 2429,5 2270,3 " fill="none" stroke="black" stroke-width="60" stroke-linecap="round"/>
    <path d="M2269,3 C2246,73 2233,153 2233,243 C2233,506 2356,680 2543,679 C2702,679 2809,547 2809,346 C2809,236 2771,108 2707,0 " fill="none" stroke="black" stroke-width="60" stroke-linecap="round"/>
    <path d="M2839,798 C2808,912 2731,1005 2612,1005 C2497,1005 2413.489990234375,930.6751098632812 2382,824 " fill="none" stroke="black" stroke-width="60" stroke-linecap="round"/>
    <path d="M2382,824 C2559,864 2719,840 2844,767 " fill="none" stroke="black" stroke-width="60" stroke-linecap="round"/>
    <path d="M2844,767 C2862,851 2878,955 2886,1030 " fill="none" stroke="black" stroke-width="60" stroke-linecap="round"/>
  </g>
</svg>
