<?xml version="1.0" ?>
<svg xmlns="http://www.w3.org/2000/svg" viewBox="71.1677017211914 -314 2002.8322982788086 1051.156005859375">
  <g transform="scale(1, -1) translate(0, -423.156005859375)">
    <path d="M401.6003112792969,312.42718505859375 C381.9961242675781,357.5426940917969 340.32550048828125,388 273.9941101074219,388 C163.9940948486328,388 81.32479858398438,278 75.89759826660156,160 C71.1677017211914,52 121.00240325927734,-8.710000038146973 191.98440551757812,-8 C292.735595703125,-6.992199897766113 366.79400634765625,91.9677963256836 399.852294921875,301.3554992675781 C403.93096923828125,327.1893615722656 408.15771484375,354.1661376953125 412.23638916015625,380 " fill="none" stroke="black" stroke-width="60" stroke-linecap="round"/>
    <path d="M412.23638916015625,380 C408.107177734375,353.7950439453125 403.9779968261719,327.5900573730469 399.8487854003906,301.3851013183594 C381.7887878417969,186.7725067138672 373.4560852050781,141.55520629882812 374.35101318359375,112 C376.440185546875,43 401.25439453125,-4 475.009033203125,-4 C594.33984375,-4 716.0989990234375,230.00411987304688 823.9723510742188,376.0482482910156 C899.278076171875,478.00079345703125 935.9945068359375,569.3778076171875 938,642.1939697265625 C939,696.1920166015625 913,737.156005859375 864,737.156005859375 C810,737.156005859375 776,696.1920166015625 755,602.1610107421875 C732,498.82000732421875 715,380.239990234375 672,0 " fill="none" stroke="black" stroke-width="60" stroke-linecap="round"/>
    <path d="M676.2145385742188,37.160953521728516 C697.4287109375,223.645263671875 782,372 889,372 C953,372 993.674560546875,321 982.1253662109375,248 C975.623779296875,205 963.8778076171875,155 957.1666870117188,106 C949.0015869140625,44 972.325439453125,-4 1043.83544921875,-4 C1143.4007568359375,-4 1188.87451171875,104.4856948852539 1226.2186279296875,210.62142944335938 C1264,318 1311,385 1409,385 C1490,385 1554,325 1554,212 C1554,87 1472.90087890625,-7 1370.41845703125,-8 C1280.234130859375,-9 1221,64 1227,174 C1234,296 1308,385 1405,385 C1461,385 1500,366 1545,333 C1684.3114013671875,231.37120056152344 1799.8917236328125,280.5130920410156 1841,381 " fill="none" stroke="black" stroke-width="60" stroke-linecap="round"/>
    <path d="M1841,381 C1822.3333740234375,222.66665649414062 1803.6666259765625,64.33331298828125 1785,-94 C1766.483642578125,-251.05780029296875 1720,-314 1650,-314 C1603,-314 1569,-284.0697937011719 1569,-236 C1569,-171.7718048095703 1617.7403564453125,-125.66320037841797 1730,-91 C1934.7491455078125,-27.778099060058594 2020.961669921875,44.72439956665039 2074,182 " fill="none" stroke="black" stroke-width="60" stroke-linecap="round"/>
    <path d="M1862,589 C1862,589 1862,589 1862,589 " fill="none" stroke="black" stroke-width="60" stroke-linecap="round"/>
  </g>
</svg>
