<?xml version="1.0" ?>
<svg xmlns="http://www.w3.org/2000/svg" viewBox="141.06149291992188 -90.99980163574219 1797.1089172363281 896.3939056396484">
  <g transform="scale(1, -1) translate(0, -714.3943023681641)">
    <path d="M156.0802001953125,551.3737182617188 C141.11790466308594,435.2135925292969 141.06149291992188,300.8190002441406 149.78900146484375,177.19729614257812 " fill="none" stroke="black" stroke-width="60" stroke-linecap="round"/>
    <path d="M144.53671264648438,392.7957458496094 C146.66513061523438,476.5328063964844 187.36659240722656,551.2059936523438 254.6201934814453,551.2059936523438 C308.47320556640625,551.2059936523438 337.7450866699219,506.281005859375 334.268798828125,423.83770751953125 C330.8030090332031,341.6427001953125 300.95318603515625,248.65980529785156 256.73260498046875,180.01229858398438 " fill="none" stroke="black" stroke-width="60" stroke-linecap="round"/>
    <path d="M257.7381896972656,180.01109313964844 C291.9667053222656,175.522705078125 342.2705078125,178.88900756835938 375.3866882324219,185.6215057373047 " fill="none" stroke="black" stroke-width="60" stroke-linecap="round"/>
    <path d="M711,770 C632,664 509,532 419,465 " fill="none" stroke="black" stroke-width="60" stroke-linecap="round"/>
    <path d="M683.6566162109375,730.7947998046875 C746.5162963867188,651.57861328125 868.6431274414062,546.0576782226562 966,482 " fill="none" stroke="black" stroke-width="60" stroke-linecap="round"/>
    <path d="M563,452 C665.92822265625,444.005615234375 758.1749267578125,442.7076110839844 837,453.68328857421875 " fill="none" stroke="black" stroke-width="60" stroke-linecap="round"/>
    <path d="M837,453.68328857421875 C584.8624877929688,411.87249755859375 463.8193054199219,226.65069580078125 510,13.188899993896484 " fill="none" stroke="black" stroke-width="60" stroke-linecap="round"/>
    <path d="M510,13.257699966430664 C523.4636840820312,137.72900390625 588.109619140625,235.89430236816406 696,247.42100524902344 C783.8961791992188,256.8114929199219 842,213.51849365234375 842,136.05340576171875 C842,58.206298828125 773.7525024414062,-11.141400337219238 658,-50 " fill="none" stroke="black" stroke-width="60" stroke-linecap="round"/>
    <path d="M658,-50 C740,-47 823,-44 897,-37 " fill="none" stroke="black" stroke-width="60" stroke-linecap="round"/>
    <path d="M1100.59423828125,554.6409912109375 C1089.104736328125,420.3088073730469 1089.0615234375,264.8893127441406 1095.7633056640625,121.9281005859375 " fill="none" stroke="black" stroke-width="60" stroke-linecap="round"/>
    <path d="M1092.8497314453125,417.8845520019531 C1095.2261962890625,493.6178283691406 1127.793212890625,554.273681640625 1183.5894775390625,554.273681640625 C1227.1016845703125,554.273681640625 1246.821044921875,516.5219116210938 1243.52001953125,441.0068054199219 C1238.65087890625,329.6199951171875 1207.6231689453125,202.84500122070312 1176.1387939453125,125.18350219726562 " fill="none" stroke="black" stroke-width="60" stroke-linecap="round"/>
    <path d="M1176.1387939453125,125.18350219726562 C1203.2196044921875,119.96260070800781 1240.3499755859375,123.83920288085938 1265.927490234375,131.67019653320312 " fill="none" stroke="black" stroke-width="60" stroke-linecap="round"/>
    <path d="M1293.49072265625,794.2772827148438 C1294.783447265625,746.3502197265625 1301.477294921875,678.78662109375 1316,626.8634033203125 " fill="none" stroke="black" stroke-width="60" stroke-linecap="round"/>
    <path d="M1316,626.8634033203125 C1307.4793701171875,668.1331176757812 1317.5421142578125,712.5985107421875 1340.019775390625,739.159423828125 C1364.342529296875,767.9008178710938 1400.619140625,784.6340942382812 1470.98486328125,794.1337890625 C1541.435791015625,803.64501953125 1663.89111328125,805.3941040039062 1738,796 C1799.272705078125,788.3408813476562 1827,758 1826,713 C1824,649 1747,621 1580,617 C1506,615 1441.412841796875,620.3115844726562 1404.0115966796875,628.036376953125 " fill="none" stroke="black" stroke-width="60" stroke-linecap="round"/>
    <path d="M1461,793.8380126953125 C1486,707.3018188476562 1504.600830078125,653.1670532226562 1517.600830078125,617.008056640625 " fill="none" stroke="black" stroke-width="60" stroke-linecap="round"/>
    <path d="M1683,793.888916015625 C1657,711.6796264648438 1638,657.9364013671875 1624,618.9472045898438 " fill="none" stroke="black" stroke-width="60" stroke-linecap="round"/>
    <path d="M1438.973876953125,499.10198974609375 C1405.4959716796875,467.4830017089844 1370.0714111328125,430.0340881347656 1337.948974609375,394.38079833984375 " fill="none" stroke="black" stroke-width="60" stroke-linecap="round"/>
    <path d="M1337.948974609375,394.38079833984375 C1436.5364990234375,357.94830322265625 1491.18701171875,287.86279296875 1494.0875244140625,214.83729553222656 C1496.5557861328125,152.6927947998047 1461.4033203125,122.40670013427734 1423.266845703125,122.40670013427734 C1385.97119140625,122.40670013427734 1356.8284912109375,151.32510375976562 1361.234375,201.5991973876953 C1365.2896728515625,247.8721923828125 1389.049072265625,286.51800537109375 1436.1444091796875,338.2607116699219 C1504.8497314453125,413.74609375 1559.7235107421875,462.0895080566406 1622.90234375,515.1143798828125 " fill="none" stroke="black" stroke-width="60" stroke-linecap="round"/>
    <path d="M1255.859130859375,27.773099899291992 C1255.0516357421875,2.689199924468994 1267.9888916015625,-53.98929977416992 1282.24951171875,-79.70590209960938 " fill="none" stroke="black" stroke-width="60" stroke-linecap="round"/>
    <path d="M1367.771728515625,26.795299530029297 C1367.247802734375,6.636000156402588 1379.3087158203125,-38.90380096435547 1392.3092041015625,-59.56010055541992 " fill="none" stroke="black" stroke-width="60" stroke-linecap="round"/>
    <path d="M1472.198974609375,28.645000457763672 C1471.940673828125,11.67959976196289 1484.603271484375,-26.62849998474121 1497.87744140625,-43.99489974975586 " fill="none" stroke="black" stroke-width="60" stroke-linecap="round"/>
    <path d="M1589.4498291015625,483.6090087890625 C1597.599609375,358.35540771484375 1600.844482421875,107.88610076904297 1597.2886962890625,-90.99980163574219 " fill="none" stroke="black" stroke-width="60" stroke-linecap="round"/>
    <path d="M1836.6829833984375,543.7427978515625 C1793.257568359375,497.4027099609375 1741.200439453125,456.3669128417969 1689.16357421875,416.41668701171875 " fill="none" stroke="black" stroke-width="60" stroke-linecap="round"/>
    <path d="M1689.2099609375,415.8815002441406 C1750.627197265625,428.0354919433594 1827.8167724609375,435.2596130371094 1893.493408203125,432.7582092285156 " fill="none" stroke="black" stroke-width="60" stroke-linecap="round"/>
    <path d="M1692.48095703125,266.6164855957031 C1750.349609375,274.9137878417969 1823.2227783203125,279.45001220703125 1885.380126953125,279.2146911621094 " fill="none" stroke="black" stroke-width="60" stroke-linecap="round"/>
    <path d="M1694.6221923828125,127.50550079345703 C1753.564453125,134.47869873046875 1829.6536865234375,138.67979431152344 1893.95458984375,140.08070373535156 " fill="none" stroke="black" stroke-width="60" stroke-linecap="round"/>
    <path d="M1786.2318115234375,346.8468017578125 C1791.17138671875,237.33380126953125 1791.7764892578125,106.99019622802734 1790.09326171875,-12.917400360107422 " fill="none" stroke="black" stroke-width="60" stroke-linecap="round"/>
    <path d="M1599.9384765625,-27.160400390625 C1706.5772705078125,-18.386899948120117 1846.260009765625,-11.174500465393066 1938.17041015625,-8.740599632263184 " fill="none" stroke="black" stroke-width="60" stroke-linecap="round"/>
  </g>
</svg>
