<?xml version="1.0" ?>
<svg xmlns="http://www.w3.org/2000/svg" viewBox="70.83999633789062 -10 2883.1600036621094 403">
  <g transform="scale(1, -1) translate(0, -383)">
    <path d="M363.43499755859375,320.0840148925781 C342.4773864746094,360.3870849609375 301.73150634765625,391 237.93629455566406,391 C137.69960021972656,391 70.83999633789062,288.7384033203125 70.83999633789062,185 C70.83999633789062,76.53369903564453 137,-8 252.03622436523438,-8 C387.3056335449219,-8 439.17071533203125,73.32710266113281 507.7967834472656,199.2982177734375 C579,330 639,380 729,380 C829,380 887,281 875,159 C864,48 798,-10 721,-10 C661,-10 627,31 628,81 C629.0081176757812,151.56900024414062 691,199 807,205 C891,209 963,205 1028,192 " fill="none" stroke="black" stroke-width="60" stroke-linecap="round"/>
    <path d="M1028,192 C994,70 1037,-5 1106,-5 C1190.333251953125,-5 1247.388671875,70.07949829101562 1359,380 " fill="none" stroke="black" stroke-width="60" stroke-linecap="round"/>
    <path d="M1359,380 C1354.010498046875,303.16180419921875 1354,218 1359,139 C1365,47 1402.114990234375,-5 1481.2520751953125,-5 C1591.6075439453125,-5 1757.578857421875,66.80897521972656 1830.325927734375,178.96083068847656 C1855,217 1865,251 1866,284 C1867,344 1833,389 1773,389 C1697,389 1639,303 1639,193 C1639,75 1703,-8 1822.7799072265625,-8 C1953.702392578125,-8 2022.697021484375,51.233482360839844 2068,145 " fill="none" stroke="black" stroke-width="60" stroke-linecap="round"/>
    <path d="M2068,145 C2061.8935546875,67.36190032958984 2098.505859375,-5 2170,-5 C2246.244873046875,-5 2311,66 2415,393 " fill="none" stroke="black" stroke-width="60" stroke-linecap="round"/>
    <path d="M2415,393 C2390,116 2415,0 2506,0 C2588,0 2651,98 2724,392 " fill="none" stroke="black" stroke-width="60" stroke-linecap="round"/>
    <path d="M2724,392 C2712,113 2728,-4 2817,-4 C2891,-4 2937,68 2954,156 " fill="none" stroke="black" stroke-width="60" stroke-linecap="round"/>
  </g>
</svg>
