<?xml version="1.0" ?>
<svg xmlns="http://www.w3.org/2000/svg" viewBox="-109.06069946289062 -8 1440.4076232910156 745.156005859375">
  <g transform="scale(1, -1) translate(0, -729.156005859375)">
    <path d="M-109.06069946289062,95.92639923095703 C1.9544999599456787,157.6403045654297 103.11389923095703,236.9969940185547 217.881103515625,372.07550048828125 C296,464.2846984863281 337.9999084472656,569.5725708007812 340,642.1939697265625 C341,696.1920166015625 314.6702880859375,737.156005859375 266,737.156005859375 C212,737.156005859375 178,696.1920166015625 157,602.1610107421875 C134,498.82000732421875 117,380.239990234375 74,0 " fill="none" stroke="black" stroke-width="60" stroke-linecap="round"/>
    <path d="M78.21453094482422,37.160953521728516 C100.22924041748047,230.68260192871094 184,372 291,372 C355,372 395.6745910644531,321 384.1253967285156,248 C377.6238098144531,205 370.0873107910156,161 361.3063049316406,110 C351.0714111328125,46 380.3254089355469,-4 468.96173095703125,-4 C598.2246704101562,-4 739.2435302734375,67.83381652832031 811.4124145507812,179.0941619873047 C836,217 846,251 847,284 C848,344 814,389 754,389 C678,389 620,303 620,193 C620,75 684,-8 810.497314453125,-8 C963.8485107421875,-8 1084.9205322265625,116.35197448730469 1117.0947265625,289.5101318359375 C1122.6065673828125,319.1737365722656 1130.039306640625,349.7390441894531 1135.1541748046875,380 " fill="none" stroke="black" stroke-width="60" stroke-linecap="round"/>
    <path d="M1135.1541748046875,380 C1123.6605224609375,312 1113.0775146484375,256 1106.4498291015625,206 C1102.695556640625,173 1100.904052734375,145 1101.112548828125,117 C1101.6485595703125,45 1136.6937255859375,-4 1195,-4 C1268.5555419921875,-4 1311.6124267578125,45.33604431152344 1331.346923828125,100.05419921875 " fill="none" stroke="black" stroke-width="60" stroke-linecap="round"/>
    <path d="M1174,589 C1174,589 1174,589 1174,589 " fill="none" stroke="black" stroke-width="60" stroke-linecap="round"/>
  </g>
</svg>
