<?xml version="1.0" ?>
<svg xmlns="http://www.w3.org/2000/svg" viewBox="60 -298.1007995605469 3732 1047.7207946777344">
  <g transform="scale(1, -1) translate(0, -451.5191955566406)">
    <path d="M60,258 C78,335 138,382 218,382 C289,382 346,335 346,254 C346,183 303,130 198,84 " fill="none" stroke="black" stroke-width="60" stroke-linecap="round"/>
    <path d="M198,84 C266,53 308,-20 302,-113 C294,-228 240,-298 173,-298 C125,-298 93,-263 94,-211 C95,-146 143,-92 268.4188232421875,-55.339111328125 C435.2845458984375,-6.562976837158203 532.4057006835938,82.50132751464844 558.0942993164062,216.93927001953125 " fill="none" stroke="black" stroke-width="60" stroke-linecap="round"/>
    <path d="M857.6956787109375,319.5912780761719 C841.6956787109375,355.5912780761719 803,389 735,389 C635,389 551,291 553,157 C553,81 602,27.738399505615234 660.930908203125,27.738399505615234 C765.807861328125,27.738399505615234 835.101806640625,132.73529052734375 855.2608642578125,299.45501708984375 " fill="none" stroke="black" stroke-width="60" stroke-linecap="round"/>
    <path d="M865,380 C846.3333740234375,225.62213134765625 827.6666259765625,71.2442626953125 809,-83.13359832763672 C790,-236.54200744628906 744,-298.1007995605469 674,-298.1007995605469 C626.132080078125,-298.1007995605469 595.1386108398438,-263.3102111816406 597.0993041992188,-211.4420928955078 C599.5866088867188,-145.64300537109375 648.8768310546875,-91.8938980102539 779.24072265625,-54.693939208984375 C962.4447631835938,-2.4157943725585938 1107.311767578125,107.69413757324219 1140.979248046875,288.88787841796875 C1146.6065673828125,319.1737365722656 1153.3519287109375,349.6862487792969 1158.1439208984375,380 " fill="none" stroke="black" stroke-width="60" stroke-linecap="round"/>
    <path d="M1158.1439208984375,380 C1124.9471435546875,170 1098.7730712890625,-41 1076.5762939453125,-251 " fill="none" stroke="black" stroke-width="60" stroke-linecap="round"/>
    <path d="M1115.16845703125,79.53569793701172 C1140.6922607421875,277.0693664550781 1229.4012451171875,388 1329,388 C1407.710205078125,387 1451.7955322265625,323.1852111816406 1443.85595703125,216 C1435.2294921875,99.54409790039062 1348.144775390625,-8 1242.85595703125,-8 C1174.85595703125,-7 1134,28 1115,75 " fill="none" stroke="black" stroke-width="60" stroke-linecap="round"/>
    <path d="M1218.617919921875,-6.07421875 C1426.3607177734375,-37.10603332519531 1651.05078125,64.60121154785156 1696.21826171875,222.95718383789062 " fill="none" stroke="black" stroke-width="60" stroke-linecap="round"/>
    <path d="M2011.600341796875,312.42718505859375 C1991.99609375,357.5426940917969 1950.325439453125,388 1883.994140625,388 C1773.994140625,388 1691.3248291015625,278 1685.8975830078125,160 C1681.167724609375,52 1731.00244140625,-8.710000038146973 1801.984375,-8 C1902.735595703125,-6.992199897766113 1976.7939453125,91.9677963256836 2009.852294921875,301.3554992675781 C2013.930908203125,327.1893615722656 2018.15771484375,354.1661376953125 2022.236328125,380 " fill="none" stroke="black" stroke-width="60" stroke-linecap="round"/>
    <path d="M2022.236328125,380 C2018.107177734375,353.7950439453125 2013.97802734375,327.5900573730469 2009.8487548828125,301.3851013183594 C1991.788818359375,186.7725067138672 1983.4560546875,141.55520629882812 1984.35107421875,112 C1986.440185546875,43 2011.25439453125,-4 2089.791015625,-4 C2225.936279296875,-4 2399.84521484375,254.99520874023438 2506.449462890625,474.8935546875 C2538.975830078125,541.9874877929688 2550.846923828125,603.159912109375 2552.97802734375,649.3721923828125 C2555.672119140625,707.7935791015625 2532.07763671875,749.6199951171875 2485,749.6199951171875 C2440,749.6199951171875 2410,717.280029296875 2377,648.6799926757812 C2338,566.3599853515625 2315,468.3599853515625 2303,370.3599853515625 C2272,96.94000244140625 2337,-4 2446,-4 C2536,-4 2593,77 2600,184 C2604,274 2566,344 2498,377 " fill="none" stroke="black" stroke-width="60" stroke-linecap="round"/>
    <path d="M2557.56298828125,329.85150146484375 C2652.036865234375,212.6193084716797 2734.88232421875,119.5633544921875 2858.343505859375,133.80886840820312 C2964,146 3028,212 3031,278 C3034,342 2999,389 2929,389 C2846,389 2785,302 2785,199 C2785,68.7748031616211 2856,-8.358599662780762 2976.358642578125,-8.358599662780762 C3137.309326171875,-8.358599662780762 3254.726806640625,115.30938720703125 3287.080810546875,289.4351806640625 C3292.6064453125,319.1737365722656 3300.331787109375,349.4120178222656 3307.395263671875,379.2782897949219 " fill="none" stroke="black" stroke-width="60" stroke-linecap="round"/>
    <path d="M3307.395263671875,379.2782897949219 C3290.1162109375,306.2179870605469 3278.5341796875,247 3272.38037109375,203 C3267.2685546875,171 3264.066650390625,149 3262.81884765625,122 C3261.167236328125,50.9989013671875 3300.994384765625,0 3378,0 C3490,0 3545.651123046875,99.65470123291016 3579.39306640625,263.0910949707031 C3587.46337890625,302.1805725097656 3596.257080078125,339.4844665527344 3603.37158203125,378.75750732421875 " fill="none" stroke="black" stroke-width="60" stroke-linecap="round"/>
    <path d="M3603.37158203125,378.75750732421875 C3578.37158203125,240.75750732421875 3558,158 3558,112 C3558,43 3585,-4 3647,-4 C3725,-4 3771,49 3792,107 " fill="none" stroke="black" stroke-width="60" stroke-linecap="round"/>
    <path d="M3378,592 C3378,549 3408,511 3466,511 C3526,511 3574,554 3587,628 " fill="none" stroke="black" stroke-width="60" stroke-linecap="round"/>
  </g>
</svg>
