<?xml version="1.0" ?>
<svg xmlns="http://www.w3.org/2000/svg" viewBox="7.1930999755859375 -50.3916015625 2375.630630493164 1039.5161743164062">
  <g transform="scale(1, -1) translate(0, -938.7329711914062)">
    <path d="M148,413 C191.9613037109375,399.0122985839844 221,363.4808044433594 221,310 C221,252 180,207 125,207 C74,207 37,243 37,296 C37,371.625 103.00070190429688,420 205,417 C307.9993896484375,414 395.1940002441406,357.94769287109375 462.27020263671875,271.68231201171875 " fill="none" stroke="black" stroke-width="60" stroke-linecap="round"/>
    <path d="M515.2055053710938,640.3654174804688 C478.7607116699219,397.39300537109375 449.9226989746094,172.48890686035156 427.38238525390625,-50.3916015625 " fill="none" stroke="black" stroke-width="60" stroke-linecap="round"/>
    <path d="M849.9161987304688,651.1098022460938 C852.17578125,542.0632934570312 850.93701171875,462.6221008300781 843.1148071289062,372.4389953613281 C831.5830078125,239.4864044189453 783.6737060546875,158.65420532226562 706.3648681640625,158.65420532226562 C659.4534912109375,158.65420532226562 625.3939208984375,190.0135040283203 625.3939208984375,238.11180114746094 C625.3939208984375,303.3052978515625 686.0765991210938,355.46148681640625 797.9151611328125,351.043701171875 C903.5411376953125,346.8713073730469 1011.497802734375,312.81109619140625 1086.0015869140625,243.64889526367188 " fill="none" stroke="black" stroke-width="60" stroke-linecap="round"/>
    <path d="M1143.8330078125,654.775390625 C1106.62158203125,412.3577880859375 1076.0614013671875,180.14309692382812 1054.73046875,-42.3916015625 " fill="none" stroke="black" stroke-width="60" stroke-linecap="round"/>
    <path d="M1484.206298828125,654.72998046875 C1568.29833984375,606.2442016601562 1621.8236083984375,499.24371337890625 1621.8236083984375,396.5723876953125 C1621.8236083984375,271.39068603515625 1538.67236328125,189 1421.8236083984375,189 C1308.0948486328125,189 1231.1029052734375,267.7770080566406 1256.8236083984375,331 C1278.3321533203125,383.86920166015625 1352.943115234375,385.5563049316406 1412.8236083984375,337 C1487.125,276.75 1516.8270263671875,143.9499969482422 1528.8236083984375,-35 " fill="none" stroke="black" stroke-width="60" stroke-linecap="round"/>
    <path d="M1603.191650390625,301.98583984375 C1662.073974609375,278.72955322265625 1747.0185546875,274.7247314453125 1824.642578125,292.89703369140625 " fill="none" stroke="black" stroke-width="60" stroke-linecap="round"/>
    <path d="M2221.82373046875,662.3325805664062 C2180.82373046875,414.54559326171875 2146.82373046875,183.26089477539062 2120.82373046875,-42 " fill="none" stroke="black" stroke-width="60" stroke-linecap="round"/>
    <path d="M2140.86181640625,120.98700714111328 C2161.3857421875,278.66741943359375 2107.806396484375,403 1977.8236083984375,403 C1880.8236083984375,403 1805.8236083984375,312 1805.8236083984375,199 C1805.8236083984375,117 1835.8236083984375,27 1891.8236083984375,-36 " fill="none" stroke="black" stroke-width="60" stroke-linecap="round"/>
    <path d="M2077.867919921875,834.4241333007812 C1934.2354736328125,844.1658325195312 1890.8643798828125,886.9712524414062 1890.8643798828125,930.74462890625 C1890.8643798828125,965.7967529296875 1922.5157470703125,989.1245727539062 1966.02099609375,987.4231567382812 C2065.895751953125,983.7774658203125 2165.322998046875,875.1155395507812 2216.171875,733.6319580078125 " fill="none" stroke="black" stroke-width="60" stroke-linecap="round"/>
    <path d="M7.1930999755859375,660.1329956054688 C101.7603988647461,659.36181640625 215,658 361.5357360839844,658 C509.86846923828125,658 816.0955810546875,657.80419921875 999.2918090820312,658.0155029296875 C1166.410888671875,658.2083129882812 1575.82421875,658.7503051757812 1801.909912109375,658.74609375 C2017.107666015625,658.7421264648438 2205.16455078125,661.0795288085938 2382.82373046875,665.75732421875 " fill="none" stroke="black" stroke-width="60" stroke-linecap="round"/>
  </g>
</svg>
