<?xml version="1.0" ?>
<svg xmlns="http://www.w3.org/2000/svg" viewBox="-143 -41.41555404663086 2609.526123046875 778.0891380310059">
  <g transform="scale(1, -1) translate(0, -695.2580299377441)">
    <path d="M-143,14 C11.186300277709961,37.44350051879883 86.09439849853516,109.47799682617188 173,409 " fill="none" stroke="black" stroke-width="60" stroke-linecap="round"/>
    <path d="M163.3885498046875,376.6468811035156 C282.3885498046875,307.6468811035156 341,232 341,139 C341,62 278,-2 182,-2 C108,-2 55,43 34,84 " fill="none" stroke="black" stroke-width="60" stroke-linecap="round"/>
    <path d="M146.8009033203125,1.5231484174728394 C356.7720031738281,-41.41555404663086 539.9940185546875,67.90800476074219 584.21826171875,222.95718383789062 " fill="none" stroke="black" stroke-width="60" stroke-linecap="round"/>
    <path d="M899.600341796875,312.42718505859375 C879.99609375,357.5426940917969 838.3255004882812,388 771.994140625,388 C661.9940795898438,388 579.3248291015625,278 573.8975830078125,160 C569.167724609375,52 619.0023803710938,-8.710000038146973 689.984375,-8 C790.735595703125,-6.992199897766113 864.7940063476562,91.9677963256836 897.852294921875,301.3554992675781 C901.9309692382812,327.1893615722656 906.15771484375,354.1661376953125 910.2363891601562,380 " fill="none" stroke="black" stroke-width="60" stroke-linecap="round"/>
    <path d="M910.2363891601562,380 C906.107177734375,353.7950439453125 901.97802734375,327.5900573730469 897.8487548828125,301.3851013183594 C879.788818359375,186.7725067138672 871.4560546875,141.55520629882812 872.3510131835938,112 C874.440185546875,43 899.25439453125,-4 977.7869873046875,-4 C1113.917724609375,-4 1301.622802734375,224.89764404296875 1391.9345703125,462.61773681640625 C1418.037353515625,531.3258056640625 1428,596.2349243164062 1428,641.593994140625 C1428,695.3764038085938 1411,736.673583984375 1363,736.673583984375 C1316,736.673583984375 1285,700.1784057617188 1257,642.5543823242188 C1224.1939697265625,575.7216186523438 1199.927734375,479.32598876953125 1190,370.3599853515625 C1165,96.94000244140625 1221,-4 1344.0096435546875,-4 C1475.0386962890625,-4 1569.287353515625,123.70791625976562 1600.1929931640625,290.0387878417969 C1605.6065673828125,319.1737365722656 1613.3316650390625,349.4120178222656 1620.395263671875,379.2782897949219 " fill="none" stroke="black" stroke-width="60" stroke-linecap="round"/>
    <path d="M1620.395263671875,379.2782897949219 C1603.1160888671875,306.2179870605469 1591.5341796875,247 1585.38037109375,203 C1580.2685546875,171 1577.066650390625,149 1575.81884765625,122 C1574.167236328125,50.9989013671875 1613.9942626953125,0 1691,0 C1803,0 1858.6512451171875,99.65470123291016 1892.39306640625,263.0910949707031 C1900.4632568359375,302.1805725097656 1909.257080078125,339.4844665527344 1916.3717041015625,378.75750732421875 " fill="none" stroke="black" stroke-width="60" stroke-linecap="round"/>
    <path d="M1916.3717041015625,378.75750732421875 C1891.3717041015625,240.75750732421875 1871,158 1871,112 C1871,43 1898,-4 1968.307373046875,-4 C2075.51708984375,-4 2201.446533203125,106.484130859375 2233.298095703125,279.7263488769531 " fill="none" stroke="black" stroke-width="60" stroke-linecap="round"/>
    <path d="M2293.198486328125,539.51123046875 C2248.20556640625,366.0325927734375 2221.00537109375,237.5458984375 2217.14453125,155 C2212.243896484375,62.362300872802734 2250.681396484375,-4.2596001625061035 2323.167236328125,-4.2596001625061035 C2402.958984375,-4.2596001625061035 2453.287353515625,56.2969856262207 2466.526123046875,120.78580474853516 " fill="none" stroke="black" stroke-width="60" stroke-linecap="round"/>
    <path d="M2137.27783203125,381 C2228.27783203125,381 2319.27783203125,381 2410.27783203125,381 " fill="none" stroke="black" stroke-width="60" stroke-linecap="round"/>
  </g>
</svg>
