<?xml version="1.0" ?>
<svg xmlns="http://www.w3.org/2000/svg" viewBox="70.83999633789062 -41.55601501464844 2393.2801208496094 731.5560150146484">
  <g transform="scale(1, -1) translate(0, -648.4439849853516)">
    <path d="M374.79998779296875,325 C355.0400085449219,363 313.44000244140625,391 250,391 C129.8927001953125,391 70.83999633789062,287 70.83999633789062,185 C70.83999633789062,74 143.63999938964844,-8 269.86163330078125,-8 C439.06121826171875,-8 533.2628173828125,134.40489196777344 627.7999877929688,376 " fill="none" stroke="black" stroke-width="60" stroke-linecap="round"/>
    <path d="M628.7999877929688,376 C700.7999877929688,343 851.7999877929688,338 971.7999877929688,375 " fill="none" stroke="black" stroke-width="60" stroke-linecap="round"/>
    <path d="M971.7999877929688,375 C913.7999877929688,126 824.7999877929688,-12 704.7999877929688,-12 C637.7999877929688,-12 609.7999877929688,16 611.7999877929688,52 C614.7999877929688,94 669.7999877929688,129 764.7999877929688,106 C886.7999877929688,75 920.7999877929688,-2 1056.77099609375,-2 C1180.482421875,-2 1289.58056640625,73.28670501708984 1358.672607421875,179.80355834960938 C1382.800048828125,217 1392.800048828125,251 1393.800048828125,284 C1394.800048828125,344 1360.800048828125,389 1300.800048828125,389 C1224.800048828125,389 1166.800048828125,303 1166.800048828125,193 C1166.800048828125,75 1230.800048828125,-8 1362.6131591796875,-8 C1533.713623046875,-8 1654.401123046875,156.0287322998047 1727.800048828125,409 " fill="none" stroke="black" stroke-width="60" stroke-linecap="round"/>
    <path d="M1718.1885986328125,376.6468811035156 C1837.1885986328125,307.6468811035156 1895.800048828125,232 1895.800048828125,139 C1895.800048828125,62 1832.800048828125,-2 1736.800048828125,-2 C1662.800048828125,-2 1609.800048828125,43 1588.800048828125,84 " fill="none" stroke="black" stroke-width="60" stroke-linecap="round"/>
    <path d="M1701.6009521484375,1.5231484174728394 C1912.2589111328125,-41.55601501464844 2096.727294921875,66.06672668457031 2127.437255859375,229.50518798828125 " fill="none" stroke="black" stroke-width="60" stroke-linecap="round"/>
    <path d="M2421.719970703125,325 C2403.699951171875,363 2363.419921875,391 2301.93994140625,391 C2182.16015625,391 2122.800048828125,284 2122.800048828125,179 C2122.800048828125,76 2193.623779296875,-8 2296.64013671875,-8 C2386.66064453125,-8 2444.007568359375,51.07389831542969 2464.1201171875,105 " fill="none" stroke="black" stroke-width="60" stroke-linecap="round"/>
    <path d="M1899.800048828125,690 C1853.800048828125,638 1806.800048828125,590 1756.800048828125,544 " fill="none" stroke="black" stroke-width="60" stroke-linecap="round"/>
    <path d="M2431.800048828125,690 C2385.800048828125,638 2338.800048828125,590 2288.800048828125,544 " fill="none" stroke="black" stroke-width="60" stroke-linecap="round"/>
  </g>
</svg>
