<?xml version="1.0" ?>
<svg xmlns="http://www.w3.org/2000/svg" viewBox="-12 -251 3561.47021484375 1000.6199951171875">
  <g transform="scale(1, -1) translate(0, -498.6199951171875)">
    <path d="M-12,241 C2,307 43,382 117,382 C191,382 212,316 193,228 C180,165 170,100 149,1 " fill="none" stroke="black" stroke-width="60" stroke-linecap="round"/>
    <path d="M169.43807983398438,103.51655578613281 C202.17832946777344,277.61590576171875 280.93011474609375,388 377,388 C442,388 476,340 470,272 C465,221 448,162 444,112 C439,44 461,-4 531.25048828125,-4 C646.8487548828125,-4 740.5067138671875,127.01249694824219 770.842529296875,290.27630615234375 C776.2119140625,319.1737365722656 782.957275390625,349.68621826171875 787.749267578125,380 " fill="none" stroke="black" stroke-width="60" stroke-linecap="round"/>
    <path d="M787.749267578125,380 C754.5524291992188,170 728.37841796875,-41 706.181640625,-251 " fill="none" stroke="black" stroke-width="60" stroke-linecap="round"/>
    <path d="M744.7738037109375,79.53569793701172 C770.2975463867188,277.0693664550781 859.0065307617188,388 958.6053466796875,388 C1037.3155517578125,388 1081.40087890625,323.1852111816406 1073.461181640625,216 C1064.8348388671875,99.54409790039062 977.7500610351562,-8 872.4612426757812,-8 C804.4612426757812,-8 763.6053466796875,28 744.6053466796875,75 " fill="none" stroke="black" stroke-width="60" stroke-linecap="round"/>
    <path d="M848.2232666015625,-6.361328125 C1069.4730224609375,-37.43681335449219 1310.868896484375,85.90664672851562 1348.2935791015625,287.322021484375 C1354.2119140625,319.1737365722656 1361.93701171875,349.4120178222656 1369.00048828125,379.2782897949219 " fill="none" stroke="black" stroke-width="60" stroke-linecap="round"/>
    <path d="M1369.00048828125,379.2782897949219 C1351.721435546875,306.2179870605469 1340.1395263671875,247 1333.9857177734375,203 C1328.8739013671875,171 1325.6719970703125,149 1324.4241943359375,122 C1322.772705078125,50.9989013671875 1362.599609375,0 1439.6053466796875,0 C1551.6053466796875,0 1607.256591796875,99.65470123291016 1640.9984130859375,263.0910949707031 C1649.068603515625,302.1805725097656 1657.8623046875,339.4844665527344 1664.97705078125,378.75750732421875 " fill="none" stroke="black" stroke-width="60" stroke-linecap="round"/>
    <path d="M1664.97705078125,378.75750732421875 C1639.97705078125,240.75750732421875 1619.6053466796875,158 1619.6053466796875,112 C1619.6053466796875,43 1646.6053466796875,-4 1725.68896484375,-4 C1863.7574462890625,-4 2036.419921875,263.35064697265625 2145.068603515625,491.0738525390625 C2174.06787109375,551.8552856445312 2184.552001953125,609.31787109375 2187.583251953125,653.3721923828125 C2190.60546875,709.4398803710938 2167.60546875,749.6199951171875 2122.60546875,749.6199951171875 C2077.60546875,749.6199951171875 2047.6053466796875,717.280029296875 2014.6053466796875,648.6799926757812 C1975.6053466796875,566.3599853515625 1952.6053466796875,468.3599853515625 1940.6053466796875,370.3599853515625 C1909.6053466796875,96.94000244140625 1974.6053466796875,-4 2083.60546875,-4 C2173.60546875,-4 2230.60546875,77 2237.60546875,184 C2241.60546875,274 2203.60546875,344 2135.60546875,377 " fill="none" stroke="black" stroke-width="60" stroke-linecap="round"/>
    <path d="M2195.16845703125,329.85150146484375 C2301.200439453125,198.27700805664062 2452.014892578125,299.4747314453125 2511.759521484375,380 " fill="none" stroke="black" stroke-width="60" stroke-linecap="round"/>
    <path d="M2511.759765625,380 C2500.265869140625,312 2489.682861328125,256 2483.05517578125,206 C2479.301025390625,173 2477.509521484375,145 2477.718017578125,117 C2478.254150390625,45 2506.60546875,-4 2578.865966796875,-4 C2686.445556640625,-4 2794.4169921875,126.52946472167969 2824.836181640625,290.2415771484375 C2830.2119140625,319.1737365722656 2837.006591796875,349.653564453125 2841.588623046875,379.9997863769531 " fill="none" stroke="black" stroke-width="60" stroke-linecap="round"/>
    <path d="M2841.588623046875,379.9997863769531 C2822.412841796875,252.99989318847656 2806.101318359375,127.9999008178711 2786.925537109375,1 " fill="none" stroke="black" stroke-width="60" stroke-linecap="round"/>
    <path d="M2802.9970703125,110.88367462158203 C2827.774658203125,284.5936279296875 2903.08544921875,388 2991.405517578125,388 C3063.405517578125,388 3092.20556640625,331 3088.365478515625,254 C3084.525390625,202 3066.285400390625,100 3050.925537109375,1 " fill="none" stroke="black" stroke-width="60" stroke-linecap="round"/>
    <path d="M3067.827880859375,106.61363983154297 C3095.8857421875,280.7348937988281 3163.24560546875,388 3261.16552734375,388 C3328.365478515625,388 3361.96533203125,332 3354.285400390625,264 C3349.4853515625,216 3333.16552734375,159 3330.285400390625,112 C3325.4853515625,43 3359.6181640625,-4 3415.7255859375,-4 C3486.31201171875,-4 3529.67431640625,45.96100997924805 3549.47021484375,100.63532257080078 " fill="none" stroke="black" stroke-width="60" stroke-linecap="round"/>
    <path d="M2550.60546875,589 C2550.60546875,589 2550.60546875,589 2550.60546875,589 " fill="none" stroke="black" stroke-width="60" stroke-linecap="round"/>
  </g>
</svg>
