<?xml version="1.0" ?>
<svg xmlns="http://www.w3.org/2000/svg" viewBox="32 -240 3350.620361328125 930">
  <g transform="scale(1, -1) translate(0, -450)">
    <path d="M32,271 C54,330 104,374 165,374 C236,374 264,324 274,202 C280.3333435058594,126.33332824707031 286.6666564941406,50.666656494140625 293,-25 C306,-178 339,-240 413,-240 C487,-240 543,-181 560,-112 " fill="none" stroke="black" stroke-width="60" stroke-linecap="round"/>
    <path d="M494,379 C366,177 224,-27 65,-233 " fill="none" stroke="black" stroke-width="60" stroke-linecap="round"/>
    <path d="M1033,379 C959,149 869,-8 742,-8 C669,-8 626,51 630,157 C635,290 703,386 789,386 C862,386 898,338 915,224 C917.6666259765625,205 920.3333740234375,186 923,167 C941,49 964.077392578125,-4 1045.700439453125,-4 C1157.46484375,-4 1297.533935546875,217.567626953125 1340,380 " fill="none" stroke="black" stroke-width="60" stroke-linecap="round"/>
    <path d="M1340,380 C1304,240 1288,166 1288,107 C1288,45 1319,-4 1395.45263671875,-4 C1485.11767578125,-4 1589.2919921875,75.87596130371094 1630,198 " fill="none" stroke="black" stroke-width="60" stroke-linecap="round"/>
    <path d="M1630,198 C1626,90 1682,1 1777,1 C1900,1 1955,96 1959,201 C1963,315 1898,381 1812,381 C1708,381 1642,300 1622,154 C1589,-83 1674,-224 1812,-224 C1847,-224 1878,-215 1902,-200 " fill="none" stroke="black" stroke-width="60" stroke-linecap="round"/>
    <path d="M1475,690 C1440,638 1404,590 1364,544 " fill="none" stroke="black" stroke-width="60" stroke-linecap="round"/>
    <path d="M2408.377197265625,340 C2383.377197265625,365 2341.377197265625,386 2277.377197265625,386 C2195.377197265625,386 2140.377197265625,345 2141.377197265625,286 C2142.377197265625,220 2204.377197265625,188 2277.377197265625,188 C2316.377197265625,188 2332.377197265625,194 2331.377197265625,207 C2328.377197265625,225 2282.377197265625,233 2228.377197265625,224 C2148.377197265625,211 2104.377197265625,168 2103.377197265625,108 C2102.377197265625,48 2157.377197265625,-3 2261.377197265625,-3 C2363.377197265625,-3 2425.377197265625,48 2453.377197265625,105 " fill="none" stroke="black" stroke-width="60" stroke-linecap="round"/>
    <path d="M2531.620361328125,388 C2605.620361328125,355 2715.620361328125,343 2817.620361328125,358 C2869.620361328125,366 2892.620361328125,376 2891.620361328125,385 C2890.620361328125,393 2858.620361328125,397 2804.620361328125,384 C2683.620361328125,356 2607.620361328125,242 2607.620361328125,141 C2607.620361328125,53 2665.620361328125,-4 2746.620361328125,-4 C2803.620361328125,-4 2850.620361328125,17 2885.620361328125,53 " fill="none" stroke="black" stroke-width="60" stroke-linecap="round"/>
    <path d="M3337.620361328125,340 C3312.620361328125,365 3270.620361328125,386 3206.620361328125,386 C3124.620361328125,386 3069.620361328125,345 3070.620361328125,286 C3071.620361328125,220 3133.620361328125,188 3206.620361328125,188 C3245.620361328125,188 3261.620361328125,194 3260.620361328125,207 C3257.620361328125,225 3211.620361328125,233 3157.620361328125,224 C3077.620361328125,211 3033.620361328125,168 3032.620361328125,108 C3031.620361328125,48 3086.620361328125,-3 3190.620361328125,-3 C3292.620361328125,-3 3354.620361328125,48 3382.620361328125,105 " fill="none" stroke="black" stroke-width="60" stroke-linecap="round"/>
  </g>
</svg>
