<?xml version="1.0" ?>
<svg xmlns="http://www.w3.org/2000/svg" viewBox="-109.06069946289062 -314 1484.0606994628906 1051.156005859375">
  <g transform="scale(1, -1) translate(0, -423.156005859375)">
    <path d="M-109.06069946289062,95.92639923095703 C1.9544999599456787,157.6403045654297 103.11389923095703,236.9969940185547 217.881103515625,372.07550048828125 C296,464.2846984863281 337.9999084472656,569.5725708007812 340,642.1939697265625 C341,696.1920166015625 314.6702880859375,737.156005859375 266,737.156005859375 C212,737.156005859375 178,696.1920166015625 157,602.1610107421875 C134,498.82000732421875 117,380.239990234375 74,0 " fill="none" stroke="black" stroke-width="60" stroke-linecap="round"/>
    <path d="M78.21453094482422,37.160953521728516 C100.22924041748047,230.68260192871094 184,372 291,372 C355,372 395.6745910644531,321 384.1253967285156,248 C377.6238098144531,205 370.0873107910156,161 361.3063049316406,110 C351.0714111328125,46 380.3254089355469,-4 468.96173095703125,-4 C598.2246704101562,-4 739.2435302734375,67.83381652832031 811.4124145507812,179.0941619873047 C836,217 846,251 847,284 C848,344 814,389 754,389 C678,389 620,303 620,193 C620,75 684,-8 810.774169921875,-8 C965.0498657226562,-8 1092.713623046875,115.23794555664062 1125.079833984375,289.4300537109375 C1130.6065673828125,319.1737365722656 1138.415771484375,350.5982666015625 1142,381 " fill="none" stroke="black" stroke-width="60" stroke-linecap="round"/>
    <path d="M1142,381 C1123.3333740234375,222.66665649414062 1104.6666259765625,64.33331298828125 1086,-94 C1067.483642578125,-251.05780029296875 1021,-314 951,-314 C904,-314 870,-284.0697937011719 870,-236 C870,-171.7718048095703 918.7404174804688,-125.66320037841797 1031,-91 C1235.7491455078125,-27.778099060058594 1321.961669921875,44.72439956665039 1375,182 " fill="none" stroke="black" stroke-width="60" stroke-linecap="round"/>
    <path d="M1163,589 C1163,589 1163,589 1163,589 " fill="none" stroke="black" stroke-width="60" stroke-linecap="round"/>
  </g>
</svg>
