<?xml version="1.0" ?>
<svg xmlns="http://www.w3.org/2000/svg" viewBox="-87.4115982055664 -9 2629.4115982055664 746.156005859375">
  <g transform="scale(1, -1) translate(0, -728.156005859375)">
    <path d="M-87.4115982055664,84.49829864501953 C23.391000747680664,149.7259063720703 119.25160217285156,231.5644073486328 226.2100067138672,376.3699951171875 C301.2781066894531,478.00079345703125 337.9945068359375,569.3778076171875 340,642.1939697265625 C341,696.1920166015625 315,737.156005859375 266,737.156005859375 C212,737.156005859375 178,696.1920166015625 157,602.1610107421875 C134,498.82000732421875 117,380.239990234375 74,0 " fill="none" stroke="black" stroke-width="60" stroke-linecap="round"/>
    <path d="M78.21453094482422,37.160953521728516 C99.42868041992188,223.645263671875 184,372 291,372 C355,372 395.6745910644531,321 384.1253967285156,248 C377.6238098144531,205 365.8778076171875,155 359.16668701171875,106 C351.0015869140625,44 374.3254089355469,-4 446.55615234375,-4 C548.778076171875,-4 610.0203857421875,106.56600952148438 643.21826171875,222.95718383789062 " fill="none" stroke="black" stroke-width="60" stroke-linecap="round"/>
    <path d="M958.600341796875,312.42718505859375 C938.99609375,357.5426940917969 897.3255004882812,388 830.994140625,388 C720.9940795898438,388 638.3248291015625,278 632.8975830078125,160 C628.167724609375,52 678.0023803710938,-8.710000038146973 748.984375,-8 C849.735595703125,-6.992199897766113 923.7940063476562,91.9677963256836 956.852294921875,301.3554992675781 C960.9309692382812,327.1893615722656 965.15771484375,354.1661376953125 969.2363891601562,380 " fill="none" stroke="black" stroke-width="60" stroke-linecap="round"/>
    <path d="M969.2363891601562,380 C965.107177734375,353.7950439453125 960.97802734375,327.5900573730469 956.8487548828125,301.3851013183594 C938.788818359375,186.7725067138672 930.4560546875,141.55520629882812 931.3510131835938,112 C933.440185546875,43 958.25439453125,-4 1036.7869873046875,-4 C1172.917724609375,-4 1360.622802734375,224.89764404296875 1450.9345703125,462.61773681640625 C1477.037353515625,531.3258056640625 1487,596.2349243164062 1487,641.593994140625 C1487,695.3764038085938 1470,736.673583984375 1422,736.673583984375 C1375,736.673583984375 1344,700.1784057617188 1316,642.5543823242188 C1283.1939697265625,575.7216186523438 1258.927734375,479.32598876953125 1249,370.3599853515625 C1224,96.94000244140625 1280,-4 1413.152099609375,-4 C1574.6083984375,-4 1754.1151123046875,220.92921447753906 1845.771728515625,462.18878173828125 C1872.037353515625,531.3258056640625 1882,596.2349243164062 1882,641.593994140625 C1882,695.3764038085938 1865,736.673583984375 1817,736.673583984375 C1770,736.673583984375 1739,700.1784057617188 1711,642.5543823242188 C1678.1939697265625,575.7216186523438 1653.927734375,479.32598876953125 1644,370.3599853515625 C1619,96.94000244140625 1675,-4 1793.906005859375,-4 C1912.623779296875,-4 1977.114990234375,99.48485565185547 2015.77880859375,209.3712158203125 C2054,318 2101,385 2199,385 C2280,385 2344,325 2344,212 C2344,87 2262.90087890625,-7 2160.41845703125,-8 C2070.234130859375,-9 2011,64 2017,174 C2024,296 2098,385 2195,385 C2251,385 2298.03564453125,360.1071472167969 2335,333 C2435.21435546875,259.8928527832031 2512.4287109375,305.0714416503906 2542,377.3571472167969 " fill="none" stroke="black" stroke-width="60" stroke-linecap="round"/>
  </g>
</svg>
