<?xml version="1.0" ?>
<svg xmlns="http://www.w3.org/2000/svg" viewBox="141.06149291992188 -50 1819.5832824707031 829.2440795898438">
  <g transform="scale(1, -1) translate(0, -729.2440795898438)">
    <path d="M156.0802001953125,551.3737182617188 C141.11790466308594,435.2135925292969 141.06149291992188,300.8190002441406 149.78900146484375,177.19729614257812 " fill="none" stroke="black" stroke-width="60" stroke-linecap="round"/>
    <path d="M144.53671264648438,392.7957458496094 C146.66513061523438,476.5328063964844 187.36659240722656,551.2059936523438 254.6201934814453,551.2059936523438 C308.47320556640625,551.2059936523438 337.7450866699219,506.281005859375 334.268798828125,423.83770751953125 C330.8030090332031,341.6427001953125 300.95318603515625,248.65980529785156 256.73260498046875,180.01229858398438 " fill="none" stroke="black" stroke-width="60" stroke-linecap="round"/>
    <path d="M257.7381896972656,180.01109313964844 C291.9667053222656,175.522705078125 342.2705078125,178.88900756835938 375.3866882324219,185.6215057373047 " fill="none" stroke="black" stroke-width="60" stroke-linecap="round"/>
    <path d="M711,770 C632,664 509,532 419,465 " fill="none" stroke="black" stroke-width="60" stroke-linecap="round"/>
    <path d="M683.6566162109375,730.7947998046875 C746.5162963867188,651.57861328125 868.6431274414062,546.0576782226562 965,482 " fill="none" stroke="black" stroke-width="60" stroke-linecap="round"/>
    <path d="M563,452 C665.92822265625,444.005615234375 758.1749267578125,442.7076110839844 837,453.68328857421875 " fill="none" stroke="black" stroke-width="60" stroke-linecap="round"/>
    <path d="M837,453.68328857421875 C584.8624877929688,411.87249755859375 463.8193054199219,226.65069580078125 510,13.188899993896484 " fill="none" stroke="black" stroke-width="60" stroke-linecap="round"/>
    <path d="M510,13.257699966430664 C523.4636840820312,137.72900390625 588.109619140625,235.89430236816406 696,247.42100524902344 C783.8961791992188,256.8114929199219 842,213.51849365234375 842,136.05340576171875 C842,58.206298828125 773.7525024414062,-11.141400337219238 658,-50 " fill="none" stroke="black" stroke-width="60" stroke-linecap="round"/>
    <path d="M658,-50 C740,-47 823,-44 897,-37 " fill="none" stroke="black" stroke-width="60" stroke-linecap="round"/>
    <path d="M1330,736 C1253.8194580078125,605.6666259765625 1177.638916015625,475.33331298828125 1101.458251953125,345 " fill="none" stroke="black" stroke-width="60" stroke-linecap="round"/>
    <path d="M1248.299072265625,584 C1261.5478515625,407 1256.027587890625,117 1243.8829345703125,-2 " fill="none" stroke="black" stroke-width="60" stroke-linecap="round"/>
    <path d="M1486.38037109375,620.0535888671875 C1591.566650390625,636.850830078125 1714.212890625,642.3416748046875 1843.18505859375,635.88818359375 " fill="none" stroke="black" stroke-width="60" stroke-linecap="round"/>
    <path d="M1678.1597900390625,779.2440795898438 C1679.24755859375,740.4692993164062 1671.653564453125,612.1771850585938 1653.75244140625,459.7579040527344 " fill="none" stroke="black" stroke-width="60" stroke-linecap="round"/>
    <path d="M1413.817138671875,425.74310302734375 C1590.028076171875,456.1160888671875 1848.025390625,467.3651123046875 1960.644775390625,460.4479064941406 " fill="none" stroke="black" stroke-width="60" stroke-linecap="round"/>
    <path d="M1960.644775390625,460.4479064941406 C1769.21435546875,379.7101135253906 1543.0849609375,270.31689453125 1373.85302734375,143.19790649414062 " fill="none" stroke="black" stroke-width="60" stroke-linecap="round"/>
    <path d="M1824.0859375,198.51730346679688 C1724.83447265625,168.16610717773438 1629.150390625,147.9853973388672 1535.45361328125,135.92489624023438 " fill="none" stroke="black" stroke-width="60" stroke-linecap="round"/>
    <path d="M1547.3416748046875,307.27130126953125 C1535.095947265625,250.84730529785156 1530.955078125,190.5126953125 1532.794189453125,135.7615966796875 C1536.380126953125,29.01259994506836 1588.523681640625,-26.859500885009766 1698.784912109375,-30.829200744628906 C1818.97900390625,-35.15639877319336 1894.2362060546875,12.594099998474121 1922.20751953125,72.13179779052734 " fill="none" stroke="black" stroke-width="60" stroke-linecap="round"/>
  </g>
</svg>
