<?xml version="1.0" ?>
<svg xmlns="http://www.w3.org/2000/svg" viewBox="-2233 -177 2184 880">
  <g transform="scale(1, -1) translate(0, -526)">
    <path d="M-202,22 C-299,32 -349,105.01170349121094 -349,189 C-349,279.2278137207031 -284,351 -197,351 C-101,351 -49,282 -49,199 C-49,87 -129,20 -270.5666198730469,10.96383285522461 C-485.8713073730469,-2.779020309448242 -658.30517578125,133.63600158691406 -703,350 " fill="none" stroke="black" stroke-width="60" stroke-linecap="round"/>
    <path d="M-703,350 C-686,248 -678,176 -684,85 C-692,-61 -793,-147 -918,-147 C-941,-147 -962,-144 -984,-138 " fill="none" stroke="black" stroke-width="60" stroke-linecap="round"/>
    <path d="M-1530,-91 C-1595,156 -1525,310 -1388,310 C-1315.687744140625,310 -1262.238037109375,272.46649169921875 -1199,197 C-1130.620849609375,115.39820098876953 -1077.489990234375,84 -1021.38720703125,84 C-950.3372802734375,84 -955,140 -1035,143 C-1160,147 -1340,0 -1567.0089111328125,0 C-1721.65283203125,0 -1803.455078125,97.49241638183594 -1819,263 " fill="none" stroke="black" stroke-width="60" stroke-linecap="round"/>
    <path d="M-1819,263 C-1802,84 -1872,0 -1998.6746826171875,0 C-2103.025634765625,0 -2159.83447265625,93.25064086914062 -2183.973388671875,245.12478637695312 C-2207,390 -2224,549 -2233,703 " fill="none" stroke="black" stroke-width="60" stroke-linecap="round"/>
    <path d="M-1967,-177 C-1967,-177 -1967,-177 -1967,-177 " fill="none" stroke="black" stroke-width="60" stroke-linecap="round"/>
    <path d="M-1776,628 C-1834,613 -1914,589 -1975,566 " fill="none" stroke="black" stroke-width="60" stroke-linecap="round"/>
    <path d="M-1748,512 C-1807,497 -1888,473 -1948,450 " fill="none" stroke="black" stroke-width="60" stroke-linecap="round"/>
  </g>
</svg>
