<?xml version="1.0" ?>
<svg xmlns="http://www.w3.org/2000/svg" viewBox="64 -8.710000038146973 1489 745.383584022522">
  <g transform="scale(1, -1) translate(0, -727.963583946228)">
    <path d="M266,387 C165.96949768066406,378.9136047363281 91.13780212402344,294.13189697265625 77,178 C64,72 123,-8 217,-8 C331,-8 405,90 410,212 C414,329 358,388 282,388 C222,388 190,343 192,288 C193.9532928466797,212.79859924316406 250.34829711914062,128.36459350585938 368.6711120605469,117.57537841796875 C532.7955322265625,102.60975646972656 757.263427734375,223.95193481445312 847.895751953125,462.5155029296875 C874.0374145507812,531.3258056640625 884,596.2349243164062 884,641.593994140625 C884,695.3764038085938 867,736.673583984375 819,736.673583984375 C772,736.673583984375 741,700.1784057617188 713,642.5543823242188 C680.1939697265625,575.7216186523438 655.9276733398438,479.32598876953125 646,370.3599853515625 C621,96.94000244140625 677,-4 796.8040771484375,-4 C918.2161865234375,-4 998.5000610351562,101.23589324951172 1033.21826171875,222.95718383789062 " fill="none" stroke="black" stroke-width="60" stroke-linecap="round"/>
    <path d="M1348.600341796875,312.42718505859375 C1328.99609375,357.5426940917969 1287.325439453125,388 1220.994140625,388 C1110.994140625,388 1028.3248291015625,278 1022.8975830078125,160 C1018.167724609375,52 1068.00244140625,-8.710000038146973 1138.984375,-8 C1239.735595703125,-6.992199897766113 1313.7939453125,91.9677963256836 1346.852294921875,301.3554992675781 C1350.930908203125,327.1893615722656 1355.15771484375,354.1661376953125 1359.236328125,380 " fill="none" stroke="black" stroke-width="60" stroke-linecap="round"/>
    <path d="M1359.236328125,380 C1355.107177734375,353.7950439453125 1350.97802734375,327.5900573730469 1346.8487548828125,301.3851013183594 C1328.788818359375,186.7725067138672 1320.4560546875,141.55520629882812 1321.35107421875,112 C1323.440185546875,43 1348.25439453125,-4 1410.25439453125,-4 C1488.25439453125,-4 1532,49 1553,107 " fill="none" stroke="black" stroke-width="60" stroke-linecap="round"/>
    <path d="M1378,690 C1332,638 1285,590 1235,544 " fill="none" stroke="black" stroke-width="60" stroke-linecap="round"/>
  </g>
</svg>
