<?xml version="1.0" ?>
<svg xmlns="http://www.w3.org/2000/svg" viewBox="125.88829803466797 -1.1238000392913818 3480.928108215332 678.3313195705414">
  <g transform="scale(1, -1) translate(0, -676.0837194919586)">
    <path d="M182.59060668945312,634.7144775390625 C303.1365966796875,632.6929931640625 428.3489074707031,601.1417846679688 478.18170166015625,570.9302978515625 C512.6984252929688,550.0042724609375 523.6090087890625,528.3734741210938 523.5003051757812,505.76129150390625 C523.317626953125,467.7738037109375 487.894287109375,441.43798828125 444.943115234375,427.9442138671875 " fill="none" stroke="black" stroke-width="60" stroke-linecap="round"/>
    <path d="M210.8094940185547,278.1990051269531 C156.28970336914062,237.30470275878906 131.61929321289062,193.3643035888672 129.28050231933594,145.43710327148438 C125.88829803466797,75.92649841308594 183.35780334472656,30.6481990814209 294.79229736328125,27.569599151611328 C395.6520080566406,24.783000946044922 494.6593017578125,43.09550094604492 552.9559936523438,75.256103515625 " fill="none" stroke="black" stroke-width="60" stroke-linecap="round"/>
    <path d="M969.8612060546875,668.06982421875 C881.7718505859375,498.5282897949219 772.01611328125,224.75509643554688 714.8424072265625,12.263199806213379 " fill="none" stroke="black" stroke-width="60" stroke-linecap="round"/>
    <path d="M714.9254150390625,12.394599914550781 C777.888427734375,176.2324981689453 853.0667114257812,267.560302734375 933.33740234375,267.75250244140625 C983.592041015625,267.872802734375 1015.5756225585938,236.5207061767578 1026.858154296875,169.11109924316406 C1029.2435302734375,154.8587646484375 1031.6290283203125,140.60643005371094 1034.014404296875,126.3541030883789 C1046.40087890625,52.348899841308594 1078.71240234375,21.547800064086914 1132.1763916015625,21.547800064086914 C1202.151611328125,21.547800064086914 1278.019287109375,82.6322021484375 1316.994384765625,184.02650451660156 " fill="none" stroke="black" stroke-width="60" stroke-linecap="round"/>
    <path d="M1568.0235595703125,664.0040893554688 C1525.9976806640625,465.33819580078125 1498.87890625,215.94410705566406 1492.9129638671875,-1.1238000392913818 " fill="none" stroke="black" stroke-width="60" stroke-linecap="round"/>
    <path d="M1730.877197265625,553.5394897460938 C1832.02197265625,565.2670288085938 1936.3548583984375,554.1740112304688 1979.046875,533.1331787109375 C2007.23486328125,519.2409057617188 2016.310546875,500.6206970214844 2016.284912109375,480.69000244140625 C2016.2401123046875,446.1796875 1986.6949462890625,418.30108642578125 1950.8187255859375,401.23919677734375 " fill="none" stroke="black" stroke-width="60" stroke-linecap="round"/>
    <path d="M1752.5166015625,256.6610107421875 C1706.57470703125,218.718505859375 1685.8580322265625,178.44729614257812 1684.0184326171875,134.88250732421875 C1681.2376708984375,69.02519989013672 1730.0203857421875,27.827899932861328 1824.176513671875,26.699899673461914 C1909.3907470703125,25.679000854492188 1992.980712890625,43.565799713134766 2042.139404296875,73.28299713134766 " fill="none" stroke="black" stroke-width="60" stroke-linecap="round"/>
    <path d="M2214.16650390625,558.7841186523438 C2264.333251953125,521.9761962890625 2359.007568359375,483.1317138671875 2505.75732421875,489.0091857910156 C2636.803955078125,494.2576904296875 2697.310791015625,543.9284057617188 2697.310791015625,598.8314208984375 C2697.310791015625,638.6129760742188 2668.89306640625,663.1702270507812 2614.88671875,663.1702270507812 C2488.304931640625,663.1702270507812 2368.138427734375,528.3511962890625 2270.450927734375,240.76759338378906 " fill="none" stroke="black" stroke-width="60" stroke-linecap="round"/>
    <path d="M2270.450927734375,240.76759338378906 C2360.478515625,297.2325134277344 2462.906494140625,332.30621337890625 2561.46923828125,332.30621337890625 C2685.126220703125,332.30621337890625 2738.69775390625,275.1437072753906 2738.42626953125,190.34820556640625 C2738.037109375,68.73690032958984 2603.4560546875,4.63040018081665 2465.37451171875,4.63040018081665 C2378.043701171875,4.63040018081665 2309.32080078125,22.3341007232666 2276.157470703125,43.39339828491211 " fill="none" stroke="black" stroke-width="60" stroke-linecap="round"/>
    <path d="M3040.0234375,660.71142578125 C2997.99755859375,464.01251220703125 2970.87890625,217.0876007080078 2964.912841796875,2.1689000129699707 " fill="none" stroke="black" stroke-width="60" stroke-linecap="round"/>
    <path d="M3190.17236328125,502.30419921875 C3279.12890625,493.2984924316406 3493.351318359375,505.32550048828125 3606.81640625,519.69580078125 " fill="none" stroke="black" stroke-width="60" stroke-linecap="round"/>
    <path d="M3410.51025390625,677.20751953125 C3422.29248046875,572.3953247070312 3426.3359375,443.44659423828125 3422.464599609375,299.1712951660156 C3417.2431640625,104.5811996459961 3346.681640625,15.3927001953125 3244.98876953125,13.47029972076416 C3178.0615234375,12.2052001953125 3142.810546875,51.19340133666992 3143.471923828125,98.4728012084961 C3144.208740234375,151.164794921875 3189.891845703125,191.86520385742188 3273.421875,192.05020141601562 C3369.95166015625,192.26409912109375 3455.256591796875,140.7906036376953 3575.28955078125,27.99220085144043 " fill="none" stroke="black" stroke-width="60" stroke-linecap="round"/>
  </g>
</svg>
