<?xml version="1.0" ?>
<svg xmlns="http://www.w3.org/2000/svg" viewBox="-1617 -10 1577 809">
  <g transform="scale(1, -1) translate(0, -789)">
    <path d="M-40,144 C-64,60 -128,-8 -234,-8 C-339,-8 -399,75 -395,211 C-391,351 -309.17388916015625,474 -207,474 C-136.0203857421875,474 -100.01480102539062,418.9136047363281 -113,343 C-136,211 -284,145 -488,131 " fill="none" stroke="black" stroke-width="60" stroke-linecap="round"/>
    <path d="M-644,292 C-760,288 -850,198 -843,90 C-840,25 -796,-10 -744,-10 C-667,-10 -611,53 -618,175 C-624.9986572265625,288.9796142578125 -692.37939453125,432.8304138183594 -696.2828369140625,575.3248291015625 C-699.7962646484375,703.5828857421875 -642.867431640625,799 -534,799 C-457.8580017089844,799 -411.21270751953125,754.1630249023438 -384,703 " fill="none" stroke="black" stroke-width="60" stroke-linecap="round"/>
    <path d="M-995,464 C-1000,314 -1021,135 -1055,0 " fill="none" stroke="black" stroke-width="60" stroke-linecap="round"/>
    <path d="M-1532,466 C-1361.0302734375,466 -1217,292 -1222,114 C-1224,36 -1265,0 -1327,0 C-1427.9156494140625,0 -1518.7139892578125,154.87240600585938 -1533,461 " fill="none" stroke="black" stroke-width="60" stroke-linecap="round"/>
    <path d="M-1533,461 C-1549,297 -1574,143 -1617,0 " fill="none" stroke="black" stroke-width="60" stroke-linecap="round"/>
  </g>
</svg>
