<?xml version="1.0" ?>
<svg xmlns="http://www.w3.org/2000/svg" viewBox="-12 -251 3661.86474609375 1000.6199951171875">
  <g transform="scale(1, -1) translate(0, -498.6199951171875)">
    <path d="M-12,241 C2,307 43,382 117,382 C191,382 212,316 193,228 C180,165 170,100 149,1 " fill="none" stroke="black" stroke-width="60" stroke-linecap="round"/>
    <path d="M169.43807983398438,103.51655578613281 C202.17832946777344,277.61590576171875 280.93011474609375,388 377,388 C442,388 476,340 470,272 C465,221 448,162 444,112 C439,44 461,-4 531.2601318359375,-4 C646.8959350585938,-4 740.8927001953125,126.96614074707031 771.236572265625,290.27294921875 C776.6065673828125,319.1737365722656 783.3519287109375,349.6862487792969 788.1439208984375,380 " fill="none" stroke="black" stroke-width="60" stroke-linecap="round"/>
    <path d="M788.1439208984375,380 C754.9470825195312,170 728.7730712890625,-41 706.5762939453125,-251 " fill="none" stroke="black" stroke-width="60" stroke-linecap="round"/>
    <path d="M745.16845703125,79.53569793701172 C770.6921997070312,277.0693664550781 859.4011840820312,388 959,388 C1037.710205078125,387 1081.7955322265625,323.1852111816406 1073.85595703125,216 C1065.2294921875,99.54409790039062 978.1447143554688,-8 872.8558959960938,-8 C804.8558959960938,-7 764,28 745,75 " fill="none" stroke="black" stroke-width="60" stroke-linecap="round"/>
    <path d="M848.617919921875,-6.07421875 C1069.7574462890625,-39.10718536376953 1311.232177734375,85.73786926269531 1348.68603515625,287.30987548828125 C1354.6065673828125,319.1737365722656 1362.3316650390625,349.4120178222656 1369.395263671875,379.2782897949219 " fill="none" stroke="black" stroke-width="60" stroke-linecap="round"/>
    <path d="M1369.395263671875,379.2782897949219 C1352.1160888671875,306.2179870605469 1340.5341796875,247 1334.38037109375,203 C1329.2685546875,171 1326.066650390625,149 1324.81884765625,122 C1323.167236328125,50.9989013671875 1362.9942626953125,0 1440,0 C1552,0 1607.6512451171875,99.65470123291016 1641.39306640625,263.0910949707031 C1649.4632568359375,302.1805725097656 1658.257080078125,339.4844665527344 1665.3717041015625,378.75750732421875 " fill="none" stroke="black" stroke-width="60" stroke-linecap="round"/>
    <path d="M1665.3717041015625,378.75750732421875 C1640.3717041015625,240.75750732421875 1620,158 1620,112 C1620,43 1647,-4 1725.594970703125,-4 C1861.945068359375,-4 2037.73046875,254.75836181640625 2144.4365234375,474.86651611328125 C2176.975830078125,541.9874877929688 2188.846923828125,603.159912109375 2190.97802734375,649.3721923828125 C2193.672119140625,707.7935791015625 2170.07763671875,749.6199951171875 2123,749.6199951171875 C2078,749.6199951171875 2048,717.280029296875 2015,648.6799926757812 C1976,566.3599853515625 1953,468.3599853515625 1941,370.3599853515625 C1910,96.94000244140625 1975,-4 2084,-4 C2174,-4 2231,77 2238,184 C2242,274 2204,344 2136,377 " fill="none" stroke="black" stroke-width="60" stroke-linecap="round"/>
    <path d="M2195.56298828125,329.85150146484375 C2290.036865234375,212.6193084716797 2372.88232421875,119.5633544921875 2496.343505859375,133.80886840820312 C2602,146 2666,212 2669,278 C2672,342 2637,389 2567,389 C2484,389 2423,302 2423,199 C2423,68.7748031616211 2494,-8.358599662780762 2614.358642578125,-8.358599662780762 C2775.309326171875,-8.358599662780762 2892.726806640625,115.30938720703125 2925.080810546875,289.4351806640625 C2930.6064453125,319.1737365722656 2937.401123046875,349.653564453125 2941.983154296875,379.9997863769531 " fill="none" stroke="black" stroke-width="60" stroke-linecap="round"/>
    <path d="M2941.983154296875,379.9997863769531 C2922.807373046875,252.99989318847656 2906.495849609375,127.9999008178711 2887.320068359375,1 " fill="none" stroke="black" stroke-width="60" stroke-linecap="round"/>
    <path d="M2903.3916015625,110.88367462158203 C2928.169189453125,284.5936279296875 3003.47998046875,388 3091.800048828125,388 C3163.800048828125,388 3192.60009765625,331 3188.760009765625,254 C3184.919921875,202 3166.679931640625,100 3151.320068359375,1 " fill="none" stroke="black" stroke-width="60" stroke-linecap="round"/>
    <path d="M3168.222412109375,106.61363983154297 C3196.2802734375,280.7348937988281 3263.64013671875,388 3361.56005859375,388 C3428.760009765625,388 3462.35986328125,332 3454.679931640625,264 C3449.8798828125,216 3433.56005859375,159 3430.679931640625,112 C3425.8798828125,43 3460.0126953125,-4 3516.1201171875,-4 C3586.70654296875,-4 3630.06884765625,45.96100997924805 3649.86474609375,100.63532257080078 " fill="none" stroke="black" stroke-width="60" stroke-linecap="round"/>
  </g>
</svg>
