<?xml version="1.0" ?>
<svg xmlns="http://www.w3.org/2000/svg" viewBox="-92.45359802246094 -314 3753.925521850586 1063.6199951171875">
  <g transform="scale(1, -1) translate(0, -435.6199951171875)">
    <path d="M-92.45359802246094,74.660400390625 C71.46769714355469,131.75210571289062 182.9971923828125,246.96530151367188 298.6625061035156,489.3955078125 C328.46258544921875,551.8552856445312 338.9466857910156,609.31787109375 341.9779968261719,653.3721923828125 C345,709.4398803710938 322,749.6199951171875 277,749.6199951171875 C232,749.6199951171875 202,717.280029296875 169,648.6799926757812 C130,566.3599853515625 107,468.3599853515625 95,370.3599853515625 C64,96.94000244140625 129,-4 238,-4 C328,-4 385,77 392,184 C396,274 358,344 290,377 " fill="none" stroke="black" stroke-width="60" stroke-linecap="round"/>
    <path d="M349.56304931640625,329.85150146484375 C450.0641784667969,205.14019775390625 613.7254028320312,294.54595947265625 689.689697265625,351.093994140625 C722.9686889648438,375.86700439453125 752.3222045898438,385 788,385 C867,385 929,325 929,212 C929,87 850,-7 750,-8 C662,-9 604,64 610,174 C617,296 689,385 784,385 C838,385 876,366 920,333 C1043.56982421875,240.5821990966797 1167.879638671875,285.28936767578125 1198,380 " fill="none" stroke="black" stroke-width="60" stroke-linecap="round"/>
    <path d="M1198,380 C1179,253 1163,128 1143,1 " fill="none" stroke="black" stroke-width="60" stroke-linecap="round"/>
    <path d="M1156.63037109375,90.95342254638672 C1184.15869140625,278.8768005371094 1268,388 1368,388 C1438,388 1474,340 1468,272 C1463,221 1446,162 1442,112 C1437,43 1469,-4 1538.50048828125,-4 C1642.873046875,-4 1747.0008544921875,127.54780578613281 1777.2442626953125,290.31475830078125 C1782.6065673828125,319.1737365722656 1790.415771484375,350.5982666015625 1794,381 " fill="none" stroke="black" stroke-width="60" stroke-linecap="round"/>
    <path d="M1794,381 C1775.3333740234375,222.66665649414062 1756.6666259765625,64.33331298828125 1738,-94 C1719.483642578125,-251.05780029296875 1673,-314 1603,-314 C1556,-314 1522,-284.0697937011719 1522,-236 C1522,-171.7718048095703 1570.7403564453125,-125.66320037841797 1679.189697265625,-92.1765365600586 C1866.2293701171875,-34.42295837402344 2002.8282470703125,75.93299865722656 2047.70703125,203.48324584960938 C2088,318 2135,385 2233,385 C2314,385 2378,325 2378,212 C2378,87 2296.90087890625,-7 2194.41845703125,-8 C2104.234130859375,-9 2045,64 2051,174 C2058,296 2132,385 2229,385 C2285,385 2324,366 2369,333 C2506.075439453125,233.00228881835938 2619.94677734375,280.4041442871094 2660.395263671875,379.2782897949219 " fill="none" stroke="black" stroke-width="60" stroke-linecap="round"/>
    <path d="M2660.395263671875,379.2782897949219 C2643.1162109375,306.2179870605469 2631.5341796875,247 2625.38037109375,203 C2620.2685546875,171 2617.066650390625,149 2615.81884765625,122 C2614.167236328125,50.9989013671875 2653.994384765625,0 2731,0 C2843,0 2898.651123046875,99.65470123291016 2932.39306640625,263.0910949707031 C2940.46337890625,302.1805725097656 2949.257080078125,339.4844665527344 2956.37158203125,378.75750732421875 " fill="none" stroke="black" stroke-width="60" stroke-linecap="round"/>
    <path d="M2956.37158203125,378.75750732421875 C2931.37158203125,240.75750732421875 2911,158 2911,112 C2911,43 2938,-4 3011.62255859375,-4 C3130.4892578125,-4 3231.96728515625,164.47109985351562 3283,393 " fill="none" stroke="black" stroke-width="60" stroke-linecap="round"/>
    <path d="M3275.099853515625,359.0414733886719 C3399.099609375,353.0414733886719 3454,328 3454,269 C3454,228 3434,165 3428,119 C3417,39 3446.5087890625,-5 3510,-5 C3587.20361328125,-5 3640.627685546875,46.289573669433594 3661.471923828125,98.4000015258789 " fill="none" stroke="black" stroke-width="60" stroke-linecap="round"/>
    <path d="M1815,589 C1815,589 1815,589 1815,589 " fill="none" stroke="black" stroke-width="60" stroke-linecap="round"/>
  </g>
</svg>
