<?xml version="1.0" ?>
<svg xmlns="http://www.w3.org/2000/svg" viewBox="-20 -8.710000038146973 4168.35986328125 758.3299951553345">
  <g transform="scale(1, -1) translate(0, -740.9099950790405)">
    <path d="M-20,241 C-10.399999618530273,311 32.79999923706055,382 103.83999633789062,382 C174.8800048828125,382 195.0399932861328,316 176.8000030517578,228 C164.32000732421875,165 154.72000122070312,100 134.55999755859375,1 " fill="none" stroke="black" stroke-width="60" stroke-linecap="round"/>
    <path d="M154.18055725097656,103.51655578613281 C185.5424041748047,277.2349853515625 258.3999938964844,388 346.7200012207031,388 C418.7200012207031,388 447.5199890136719,331 443.67999267578125,254 C439.8399963378906,202 421.6000061035156,100 406.239990234375,1 " fill="none" stroke="black" stroke-width="60" stroke-linecap="round"/>
    <path d="M423.142333984375,106.61363983154297 C451.2010498046875,280.7395935058594 518.5599975585938,388 615.52001953125,388 C681.760009765625,388 715.3599853515625,332 707.6799926757812,264 C702.8800048828125,216 691.3599853515625,159 687.52001953125,112 C683.6799926757812,44 707.3599853515625,-4 789.7484130859375,-4 C902.2931518554688,-4 1062.6505126953125,67.90624237060547 1134.778564453125,179.10357666015625 C1159.3599853515625,217 1169.3599853515625,251 1170.3599853515625,284 C1171.3599853515625,344 1137.3599853515625,389 1077.3599853515625,389 C1001.3599853515625,389 943.3599853515625,303 943.3599853515625,193 C943.3599853515625,75 1007.3599853515625,-8 1138.12109375,-8 C1305.7086181640625,-8 1423.8446044921875,153.3538055419922 1477.3599853515625,393 " fill="none" stroke="black" stroke-width="60" stroke-linecap="round"/>
    <path d="M1469.459716796875,359.0414733886719 C1593.459716796875,353.0414733886719 1648.3599853515625,328 1648.3599853515625,269 C1648.3599853515625,228 1628.3599853515625,165 1622.3599853515625,119 C1611.3599853515625,39 1634.3599853515625,-5 1715.8837890625,-5 C1840.5506591796875,-5 1965.5416259765625,228.76214599609375 2074.14306640625,375.7921447753906 C2149.63818359375,478.00079345703125 2186.3544921875,569.3778076171875 2188.35986328125,642.1939697265625 C2189.35986328125,696.1920166015625 2163.35986328125,737.156005859375 2114.35986328125,737.156005859375 C2060.35986328125,737.156005859375 2026.3599853515625,696.1920166015625 2005.3599853515625,602.1610107421875 C1982.3599853515625,498.82000732421875 1965.3599853515625,380.239990234375 1922.3599853515625,0 " fill="none" stroke="black" stroke-width="60" stroke-linecap="round"/>
    <path d="M1926.574462890625,37.160953521728516 C1947.7886962890625,223.645263671875 2032.3599853515625,372 2139.35986328125,372 C2203.35986328125,372 2244.03466796875,321 2232.4853515625,248 C2225.98388671875,205 2214.23779296875,155 2207.526611328125,106 C2199.361572265625,44 2222.685302734375,-4 2294.916015625,-4 C2397.137939453125,-4 2458.38037109375,106.56600952148438 2491.578125,222.95718383789062 " fill="none" stroke="black" stroke-width="60" stroke-linecap="round"/>
    <path d="M2806.960205078125,312.42718505859375 C2787.35595703125,357.5426940917969 2745.685302734375,388 2679.35400390625,388 C2569.35400390625,388 2486.6845703125,278 2481.257568359375,160 C2476.527587890625,52 2526.3623046875,-8.710000038146973 2597.34423828125,-8 C2698.095458984375,-6.992199897766113 2772.15380859375,91.9677963256836 2805.212158203125,301.3554992675781 C2809.290771484375,327.1893615722656 2813.517578125,354.1661376953125 2817.59619140625,380 " fill="none" stroke="black" stroke-width="60" stroke-linecap="round"/>
    <path d="M2817.59619140625,380 C2813.467041015625,353.7950439453125 2809.337890625,327.5900573730469 2805.208740234375,301.3851013183594 C2787.148681640625,186.7725067138672 2778.81591796875,141.55520629882812 2779.7109375,112 C2781.800048828125,43 2806.6142578125,-4 2885.640625,-4 C3023.50732421875,-4 3194.285888671875,263.5843505859375 3302.83447265625,491.0977783203125 C3331.822509765625,551.8552856445312 3342.306640625,609.31787109375 3345.337890625,653.3721923828125 C3348.35986328125,709.4398803710938 3325.35986328125,749.6199951171875 3280.35986328125,749.6199951171875 C3235.35986328125,749.6199951171875 3205.35986328125,717.280029296875 3172.35986328125,648.6799926757812 C3133.35986328125,566.3599853515625 3110.35986328125,468.3599853515625 3098.35986328125,370.3599853515625 C3067.35986328125,96.94000244140625 3132.35986328125,-4 3241.35986328125,-4 C3331.35986328125,-4 3388.35986328125,77 3395.35986328125,184 C3399.35986328125,274 3361.35986328125,344 3293.35986328125,377 " fill="none" stroke="black" stroke-width="60" stroke-linecap="round"/>
    <path d="M3352.9228515625,329.85150146484375 C3461.521240234375,195.09230041503906 3613.70654296875,244.14735412597656 3681.3173828125,322.0499267578125 " fill="none" stroke="black" stroke-width="60" stroke-linecap="round"/>
    <path d="M3943.960205078125,312.42718505859375 C3924.35595703125,357.5426940917969 3882.685302734375,388 3816.35400390625,388 C3706.35400390625,388 3623.6845703125,278 3618.257568359375,160 C3613.527587890625,52 3663.3623046875,-8.710000038146973 3734.34423828125,-8 C3835.095458984375,-6.992199897766113 3909.15380859375,91.9677963256836 3942.212158203125,301.3554992675781 C3946.290771484375,327.1893615722656 3950.517578125,354.1661376953125 3954.59619140625,380 " fill="none" stroke="black" stroke-width="60" stroke-linecap="round"/>
    <path d="M3954.59619140625,380 C3950.467041015625,353.7950439453125 3946.337890625,327.5900573730469 3942.208740234375,301.3851013183594 C3924.148681640625,186.7725067138672 3915.81591796875,141.55520629882812 3916.7109375,112 C3918.800048828125,43 3943.6142578125,-4 4005.6142578125,-4 C4083.6142578125,-4 4127.35986328125,49 4148.35986328125,107 " fill="none" stroke="black" stroke-width="60" stroke-linecap="round"/>
  </g>
</svg>
