<?xml version="1.0" ?>
<svg xmlns="http://www.w3.org/2000/svg" viewBox="68.60079956054688 -9 4849.895294189453 758.6199951171875">
  <g transform="scale(1, -1) translate(0, -740.6199951171875)">
    <path d="M402.6321105957031,307 C383.0965881347656,353 342.6890869140625,388 273.6890869140625,388 C163.68910217285156,388 82.9697036743164,278 75.34339904785156,160 C68.60079956054688,52 117.31089782714844,-9 188.29930114746094,-8 C288.28759765625,-7 360.92291259765625,91.84549713134766 400.7485046386719,297 C426.45599365234375,429.4276428222656 452.2925109863281,562.5723876953125 478,695 " fill="none" stroke="black" stroke-width="60" stroke-linecap="round"/>
    <path d="M478,695 C457.59796142578125,589.6666870117188 437.1959533691406,484.33331298828125 416.7939147949219,379 C390.29901123046875,242.2100067138672 372.36669921875,158 372.9021911621094,112 C373.70550537109375,43 399,-4 465.37744140625,-4 C558.7691040039062,-4 653.028076171875,93.67893981933594 681.0266723632812,211.85372924804688 " fill="none" stroke="black" stroke-width="60" stroke-linecap="round"/>
    <path d="M864,387 C763.969482421875,378.9136047363281 689.1378173828125,294.13189697265625 675,178 C662,72 721,-8 815,-8 C929,-8 1003,90 1008,212 C1012,329 956,388 880,388 C820,388 788,343 790,288 C791.9533081054688,212.79859924316406 848.3482666015625,128.36459350585938 966.6436767578125,117.577880859375 C1130.67626953125,102.62063598632812 1341.5025634765625,264.79266357421875 1449.53369140625,491.2215576171875 C1478.462646484375,551.8552856445312 1488.9466552734375,609.31787109375 1491.97802734375,653.3721923828125 C1495,709.4398803710938 1472,749.6199951171875 1427,749.6199951171875 C1382,749.6199951171875 1352,717.280029296875 1319,648.6799926757812 C1280,566.3599853515625 1257,468.3599853515625 1245,370.3599853515625 C1214,96.94000244140625 1279,-4 1388,-4 C1478,-4 1535,77 1542,184 C1546,274 1508,344 1440,377 " fill="none" stroke="black" stroke-width="60" stroke-linecap="round"/>
    <path d="M1499.56298828125,329.85150146484375 C1608.1614990234375,195.09230041503906 1760.3468017578125,244.14735412597656 1827.9573974609375,322.0499267578125 " fill="none" stroke="black" stroke-width="60" stroke-linecap="round"/>
    <path d="M2090.600341796875,312.42718505859375 C2070.99609375,357.5426940917969 2029.325439453125,388 1962.994140625,388 C1852.994140625,388 1770.3248291015625,278 1764.8975830078125,160 C1760.167724609375,52 1810.00244140625,-8.710000038146973 1880.984375,-8 C1981.735595703125,-6.992199897766113 2055.7939453125,91.9677963256836 2088.852294921875,301.3554992675781 C2092.930908203125,327.1893615722656 2097.15771484375,354.1661376953125 2101.236328125,380 " fill="none" stroke="black" stroke-width="60" stroke-linecap="round"/>
    <path d="M2101.236328125,380 C2097.107177734375,353.7950439453125 2092.97802734375,327.5900573730469 2088.848876953125,301.3851013183594 C2070.788818359375,186.7725067138672 2062.4560546875,141.55520629882812 2063.35107421875,112 C2065.440185546875,43 2090.25439453125,-4 2163.813232421875,-4 C2282.455322265625,-4 2382.030029296875,164.75234985351562 2433,393 " fill="none" stroke="black" stroke-width="60" stroke-linecap="round"/>
    <path d="M2425.099853515625,359.0414733886719 C2549.099609375,353.0414733886719 2604,328 2604,269 C2604,228 2584,165 2578,119 C2567,39 2596.5087890625,-5 2660,-5 C2737.20361328125,-5 2790.627685546875,46.289573669433594 2811.471923828125,98.4000015258789 " fill="none" stroke="black" stroke-width="60" stroke-linecap="round"/>
    <path d="M3530.632080078125,307 C3511.0966796875,353 3470.68896484375,388 3401.68896484375,388 C3291.689208984375,388 3210.9697265625,278 3203.343505859375,160 C3196.600830078125,52 3245.310791015625,-9 3316.29931640625,-8 C3416.28759765625,-7 3488.9228515625,91.84549713134766 3528.74853515625,297 C3554.4560546875,429.4276428222656 3580.29248046875,562.5723876953125 3606,695 " fill="none" stroke="black" stroke-width="60" stroke-linecap="round"/>
    <path d="M3606,695 C3585.597900390625,589.6666870117188 3565.196044921875,484.33331298828125 3544.7939453125,379 C3518.299072265625,242.2100067138672 3500.36669921875,158 3500.902099609375,112 C3501.70556640625,43 3527,-4 3593.541748046875,-4 C3687.5107421875,-4 3778.64599609375,105.25346374511719 3812.21826171875,222.95718383789062 " fill="none" stroke="black" stroke-width="60" stroke-linecap="round"/>
    <path d="M4127.60009765625,312.42718505859375 C4107.99609375,357.5426940917969 4066.325439453125,388 3999.994140625,388 C3889.994140625,388 3807.32470703125,278 3801.897705078125,160 C3797.167724609375,52 3847.00244140625,-8.710000038146973 3917.984375,-8 C4018.735595703125,-6.992199897766113 4092.7939453125,91.9677963256836 4125.8525390625,301.3554992675781 C4129.93115234375,327.1893615722656 4134.15771484375,354.1661376953125 4138.236328125,380 " fill="none" stroke="black" stroke-width="60" stroke-linecap="round"/>
    <path d="M4138.236328125,380 C4134.107421875,353.7950439453125 4129.97802734375,327.5900573730469 4125.8486328125,301.3851013183594 C4107.78857421875,186.7725067138672 4099.4560546875,141.55520629882812 4100.35107421875,112 C4102.4404296875,43 4127.25439453125,-4 4196.6728515625,-4 C4300.7568359375,-4 4403.0556640625,127.84443664550781 4433.248046875,290.3360595703125 C4438.6064453125,319.1737365722656 4446.458984375,349.6476135253906 4451,380 " fill="none" stroke="black" stroke-width="60" stroke-linecap="round"/>
    <path d="M4451,380 C4432,253 4416,128 4396,1 " fill="none" stroke="black" stroke-width="60" stroke-linecap="round"/>
    <path d="M4409.63037109375,90.95342254638672 C4437.15869140625,278.8768005371094 4521,388 4621,388 C4691,388 4727,340 4721,272 C4716,221 4699,162 4695,112 C4690,43 4726.4912109375,-4 4784,-4 C4856.349609375,-4 4899.017578125,45.16062927246094 4918.49609375,98.95906066894531 " fill="none" stroke="black" stroke-width="60" stroke-linecap="round"/>
  </g>
</svg>
