<?xml version="1.0" ?>
<svg xmlns="http://www.w3.org/2000/svg" viewBox="-87.4115982055664 -8.710000038146973 2197.4115982055664 745.866005897522">
  <g transform="scale(1, -1) translate(0, -728.446005821228)">
    <path d="M-87.4115982055664,84.49829864501953 C23.391000747680664,149.7259063720703 119.25160217285156,231.5644073486328 226.2100067138672,376.3699951171875 C301.2781066894531,478.00079345703125 337.9945068359375,569.3778076171875 340,642.1939697265625 C341,696.1920166015625 315,737.156005859375 266,737.156005859375 C212,737.156005859375 178,696.1920166015625 157,602.1610107421875 C134,498.82000732421875 117,380.239990234375 74,0 " fill="none" stroke="black" stroke-width="60" stroke-linecap="round"/>
    <path d="M78.21453094482422,37.160953521728516 C99.42868041992188,223.645263671875 184,372 291,372 C355,372 395.6745910644531,321 384.1253967285156,248 C377.6238098144531,205 365.8778076171875,155 359.16668701171875,106 C351.0015869140625,44 374.3254089355469,-4 446.4375915527344,-4 C548.2224731445312,-4 612.3004760742188,94.82870483398438 640.0266723632812,211.85372924804688 " fill="none" stroke="black" stroke-width="60" stroke-linecap="round"/>
    <path d="M823,387 C722.969482421875,378.9136047363281 648.1378173828125,294.13189697265625 634,178 C621,72 680,-8 774,-8 C888,-8 962,90 967,212 C971,329 915,388 839,388 C779,388 747,343 749,288 C750.9533081054688,212.79859924316406 807.3482666015625,128.36459350585938 925.671142578125,117.57537841796875 C1089.7955322265625,102.60975646972656 1314.263427734375,223.95193481445312 1404.895751953125,462.5155029296875 C1431.037353515625,531.3258056640625 1441,596.2349243164062 1441,641.593994140625 C1441,695.3764038085938 1424,736.673583984375 1376,736.673583984375 C1329,736.673583984375 1298,700.1784057617188 1270,642.5543823242188 C1237.1939697265625,575.7216186523438 1212.927734375,479.32598876953125 1203,370.3599853515625 C1178,96.94000244140625 1234,-4 1353.8040771484375,-4 C1475.2161865234375,-4 1555.5,101.23589324951172 1590.21826171875,222.95718383789062 " fill="none" stroke="black" stroke-width="60" stroke-linecap="round"/>
    <path d="M1905.600341796875,312.42718505859375 C1885.99609375,357.5426940917969 1844.325439453125,388 1777.994140625,388 C1667.994140625,388 1585.3248291015625,278 1579.8975830078125,160 C1575.167724609375,52 1625.00244140625,-8.710000038146973 1695.984375,-8 C1796.735595703125,-6.992199897766113 1870.7939453125,91.9677963256836 1903.852294921875,301.3554992675781 C1907.930908203125,327.1893615722656 1912.15771484375,354.1661376953125 1916.236328125,380 " fill="none" stroke="black" stroke-width="60" stroke-linecap="round"/>
    <path d="M1916.236328125,380 C1912.107177734375,353.7950439453125 1907.97802734375,327.5900573730469 1903.8487548828125,301.3851013183594 C1885.788818359375,186.7725067138672 1877.4560546875,141.55520629882812 1878.35107421875,112 C1880.440185546875,43 1905.25439453125,-4 1967.25439453125,-4 C2045.25439453125,-4 2089,49 2110,107 " fill="none" stroke="black" stroke-width="60" stroke-linecap="round"/>
  </g>
</svg>
