<?xml version="1.0" ?>
<svg xmlns="http://www.w3.org/2000/svg" viewBox="70.83999633789062 -9 1948.9600524902344 598">
  <g transform="scale(1, -1) translate(0, -580)">
    <path d="M374.79998779296875,325 C355.0400085449219,363 313.44000244140625,391 250,391 C129.8927001953125,391 70.83999633789062,287 70.83999633789062,185 C70.83999633789062,74 143.63999938964844,-8 267.177978515625,-8 C427.0308532714844,-8 570.0484619140625,112.73492431640625 602.846435546875,289.2501525878906 C608.406494140625,319.1737365722656 615.83935546875,349.7390441894531 620.9541625976562,380 " fill="none" stroke="black" stroke-width="60" stroke-linecap="round"/>
    <path d="M620.9541625976562,380 C609.4605102539062,312 598.8775024414062,256 592.249755859375,206 C588.4954833984375,173 586.7039794921875,145 586.9124755859375,117 C587.4486083984375,45 615.7999877929688,-4 685.1202392578125,-4 C782.3409423828125,-4 877.1634521484375,104.26284790039062 911.0182495117188,222.95718383789062 " fill="none" stroke="black" stroke-width="60" stroke-linecap="round"/>
    <path d="M1226.4002685546875,312.42718505859375 C1206.796142578125,357.5426940917969 1165.12548828125,388 1098.7940673828125,388 C988.7940673828125,388 906.124755859375,278 900.6975708007812,160 C895.9677124023438,52 945.8023681640625,-8.710000038146973 1016.784423828125,-8 C1117.53564453125,-6.992199897766113 1191.593994140625,91.9677963256836 1224.65234375,301.3554992675781 C1228.73095703125,327.1893615722656 1232.957763671875,354.1661376953125 1237.036376953125,380 " fill="none" stroke="black" stroke-width="60" stroke-linecap="round"/>
    <path d="M1237.036376953125,380 C1232.9072265625,353.7950439453125 1228.7779541015625,327.5900573730469 1224.6488037109375,301.3851013183594 C1206.5887451171875,186.7725067138672 1198.256103515625,141.55520629882812 1199.1510009765625,112 C1201.240234375,43 1226.054443359375,-4 1291.658447265625,-4 C1382.330810546875,-4 1456.492919921875,103.96935272216797 1493.9732666015625,210.49234008789062 C1531.800048828125,318 1578.800048828125,385 1676.800048828125,385 C1757.800048828125,385 1821.800048828125,325 1821.800048828125,212 C1821.800048828125,87 1740.700927734375,-7 1638.218505859375,-8 C1548.0341796875,-9 1488.800048828125,64 1494.800048828125,174 C1501.800048828125,296 1575.800048828125,385 1672.800048828125,385 C1728.800048828125,385 1775.835693359375,360.1071472167969 1812.800048828125,333 C1913.014404296875,259.8928527832031 1990.2286376953125,305.0714416503906 2019.800048828125,377.3571472167969 " fill="none" stroke="black" stroke-width="60" stroke-linecap="round"/>
    <path d="M659.7999877929688,589 C659.7999877929688,589 659.7999877929688,589 659.7999877929688,589 " fill="none" stroke="black" stroke-width="60" stroke-linecap="round"/>
  </g>
</svg>
