<?xml version="1.0" ?>
<svg xmlns="http://www.w3.org/2000/svg" viewBox="66 -9 4002 746.156005859375">
  <g transform="scale(1, -1) translate(0, -728.156005859375)">
    <path d="M66,298 C74,344 103,382 150,382 C198,382 224,343 250,268 C263.6666564941406,230.66665649414062 277.3333435058594,193.3333282470703 291,156 C331.9674987792969,44.08869934082031 362.23199462890625,-4 441.44793701171875,-4 C553.750732421875,-4 655.7933959960938,126.431640625 686.2293701171875,290.23455810546875 C691.6065673828125,319.1737365722656 699.0393676757812,349.7390441894531 704.1541748046875,380 " fill="none" stroke="black" stroke-width="60" stroke-linecap="round"/>
    <path d="M447,380 C340,255 217,128 81,0 " fill="none" stroke="black" stroke-width="60" stroke-linecap="round"/>
    <path d="M704.1541748046875,380 C692.6605224609375,312 682.0775146484375,256 675.4498291015625,206 C671.6954956054688,173 669.9039916992188,145 670.1124877929688,117 C670.6486206054688,45 699,-4 771.2605590820312,-4 C878.840087890625,-4 986.8115844726562,126.52946472167969 1017.230712890625,290.2415771484375 C1022.6065673828125,319.1737365722656 1030.4591064453125,349.6476135253906 1035,380 " fill="none" stroke="black" stroke-width="60" stroke-linecap="round"/>
    <path d="M1035,380 C1016,253 1000,128 980,1 " fill="none" stroke="black" stroke-width="60" stroke-linecap="round"/>
    <path d="M993.63037109375,90.95342254638672 C1021.15869140625,278.8768005371094 1105,388 1205,388 C1275,388 1311,340 1305,272 C1300,221 1283,162 1279,112 C1274,43 1310.4913330078125,-4 1368,-4 C1440.349609375,-4 1483.017333984375,45.16062927246094 1502.49609375,98.95906066894531 " fill="none" stroke="black" stroke-width="60" stroke-linecap="round"/>
    <path d="M743,589 C743,589 743,589 743,589 " fill="none" stroke="black" stroke-width="60" stroke-linecap="round"/>
    <path d="M2194.719970703125,325 C2176,363 2134.39990234375,391 2072,391 C1955.3599853515625,391 1897.0400390625,293 1897.0400390625,190 C1897.0400390625,76.6427993774414 1978.527587890625,-8 2095.56640625,-8 C2290.841064453125,-8 2424.39501953125,216.86639404296875 2539.971435546875,373.3392333984375 C2617.278076171875,478.00079345703125 2653.99462890625,569.3778076171875 2656,642.1939697265625 C2657,696.1920166015625 2631,737.156005859375 2582,737.156005859375 C2528,737.156005859375 2494,696.1920166015625 2473,602.1610107421875 C2450,498.82000732421875 2433,380.239990234375 2390,0 " fill="none" stroke="black" stroke-width="60" stroke-linecap="round"/>
    <path d="M2394.214599609375,37.160953521728516 C2415.4287109375,223.645263671875 2500,372 2607,372 C2671,372 2711.674560546875,321 2700.12548828125,248 C2693.623779296875,205 2681.8779296875,155 2675.166748046875,106 C2667.00146484375,44 2690.325439453125,-4 2762.55615234375,-4 C2864.778076171875,-4 2926.0205078125,106.56600952148438 2959.21826171875,222.95718383789062 " fill="none" stroke="black" stroke-width="60" stroke-linecap="round"/>
    <path d="M3274.600341796875,312.42718505859375 C3254.99609375,357.5426940917969 3213.325439453125,388 3146.994140625,388 C3036.994140625,388 2954.32470703125,278 2948.897705078125,160 C2944.167724609375,52 2994.00244140625,-8.710000038146973 3064.984375,-8 C3165.735595703125,-6.992199897766113 3239.7939453125,91.9677963256836 3272.852294921875,301.3554992675781 C3276.930908203125,327.1893615722656 3281.15771484375,354.1661376953125 3285.236328125,380 " fill="none" stroke="black" stroke-width="60" stroke-linecap="round"/>
    <path d="M3285.236328125,380 C3281.107177734375,353.7950439453125 3276.97802734375,327.5900573730469 3272.848876953125,301.3851013183594 C3254.788818359375,186.7725067138672 3246.4560546875,141.55520629882812 3247.35107421875,112 C3249.440185546875,43 3274.25439453125,-4 3339.8583984375,-4 C3430.53076171875,-4 3504.69287109375,103.96935272216797 3542.17333984375,210.49234008789062 C3580,318 3627,385 3725,385 C3806,385 3870,325 3870,212 C3870,87 3788.90087890625,-7 3686.41845703125,-8 C3596.234130859375,-9 3537,64 3543,174 C3550,296 3624,385 3721,385 C3777,385 3824.03564453125,360.1071472167969 3861,333 C3961.21435546875,259.8928527832031 4038.4287109375,305.0714416503906 4068,377.3571472167969 " fill="none" stroke="black" stroke-width="60" stroke-linecap="round"/>
    <path d="M3110,690 C3133,628 3180,573 3227,544 " fill="none" stroke="black" stroke-width="60" stroke-linecap="round"/>
  </g>
</svg>
