<?xml version="1.0" ?>
<svg xmlns="http://www.w3.org/2000/svg" viewBox="78 -48 1915.9091796875 827">
  <g transform="scale(1, -1) translate(0, -731)">
    <path d="M285,736 C216,605.6666259765625 147,475.33331298828125 78,345 " fill="none" stroke="black" stroke-width="60" stroke-linecap="round"/>
    <path d="M211,584 C223,407 218,117 207,-2 " fill="none" stroke="black" stroke-width="60" stroke-linecap="round"/>
    <path d="M567,779 C509.3333435058594,675.6666870117188 451.6666564941406,572.3333129882812 394,469 " fill="none" stroke="black" stroke-width="60" stroke-linecap="round"/>
    <path d="M394,469 C475.9014892578125,571.8762817382812 590.74609375,651 728,651 C798,651 844,619 844,557 C844,503 811,455 762,425 " fill="none" stroke="black" stroke-width="60" stroke-linecap="round"/>
    <path d="M595,436 C606,366 618,221 618,89 C618,-5 595,-46 534,-47 C456,-48 375.84490966796875,35.37379837036133 375.8900146484375,108.37449645996094 C375.91351318359375,146.375 391.9342956542969,180.03729248046875 432.9537048339844,211.17140197753906 C490.49969482421875,255.5749053955078 609,287 724,285 C828,283 877,240 877,171 C877,108 848,51 806,10 " fill="none" stroke="black" stroke-width="60" stroke-linecap="round"/>
    <path d="M1370.3753662109375,761.638671875 C1281.281005859375,557.6024169921875 1228.8310546875,391.9953918457031 1228.8310546875,309.51910400390625 C1228.8310546875,206.37730407714844 1361.490478515625,40.56380081176758 1468.82421875,-15.850600242614746 " fill="none" stroke="black" stroke-width="60" stroke-linecap="round"/>
    <path d="M1452.9091796875,541 C1431.9091796875,309 1365.9091796875,140 1307.9091796875,68 C1272.9091796875,24 1233.9091796875,3 1180.9091796875,4 C1111.9091796875,6 1042.9091796875,79 1035.9091796875,185 C1031.9091796875,245 1047.9091796875,299 1075.9091796875,345 C1161.9091796875,487 1370.9091796875,562 1517.9091796875,562 " fill="none" stroke="black" stroke-width="60" stroke-linecap="round"/>
    <path d="M1609.9091796875,707 C1639.6414794921875,743.9091186523438 1684.9091796875,772 1744.9091796875,770 C1800.9091796875,768 1834.9091796875,738 1836.9091796875,688 C1839.9090576171875,620.0031127929688 1781.781005859375,559.9359130859375 1669.9091796875,504 " fill="none" stroke="black" stroke-width="60" stroke-linecap="round"/>
    <path d="M1669.9091796875,504 C1746.843017578125,444.8200988769531 1799.8367919921875,343.0945129394531 1808.9091796875,206 C1819.9091796875,44 1777.9091796875,-38 1705.9091796875,-38 C1623.9091796875,-38 1533.9091796875,84 1529.9091796875,192 C1527.9091796875,250 1548.9722900390625,288.031494140625 1604.9091796875,316 C1689.9091796875,359 1866.9091796875,354 1993.9091796875,307 " fill="none" stroke="black" stroke-width="60" stroke-linecap="round"/>
  </g>
</svg>
